<?xml version="1.0" encoding="utf-8"?>
<!-- Generator: Adobe Illustrator 22.1.0, SVG Export Plug-In . SVG Version: 6.00 Build 0)  -->
<svg version="1.1" id="Layer_1"
	 xmlns="http://www.w3.org/2000/svg" xmlns:xlink="http://www.w3.org/1999/xlink"
	 style="enable-background:new 0 0 1280 1024;" xml:space="preserve" width="200px" height="100px" viewBox="250 300 1000 400">
<style type="text/css">
	.st0{fill:#1CCBFF;}
	.st1{fill:#FFF;}
</style>
<metadata>
	<sfw>
		<slices></slices>
		<sliceSourceBounds  bottomLeftOrigin="true" height="384.2" width="910" x="196" y="-709"></sliceSourceBounds>
	</sfw>
</metadata>
<path class="st0" d="M196,522.3l72.2-7.1c2,0,3.7,2.4,5,3.8l19.2,22.5l22-19.6c1.5-1.4,3.6-1.9,5.6-1.6c2,0.3,3.7,1.6,4.7,3.3
	l10.2,18.3l20.9-49.2c1.1-2.5,3.7-4.1,6.5-4c2.8,0.2,5.2,2,6,4.7l37.7,83.3L431.3,473c0.7-2.9,3.3-5,6.3-5.1c0.1,0,0.1,0,0.2,0
	c2.9,0,5.6,1.9,6.4,4.8l20.6,69.2l23.2-33.3c1-1.5,2.6-2.5,4.3-2.8c1.8-0.3,50.8,10.8,50.8,10.8l0,0l-48,5.1L467.8,561
	c-1.5,2.1-4,3.2-6.5,2.8c-2.5-0.4-4.6-2.2-5.3-4.7l-17.5-59L413.1,603c-0.7,2.9-3.3,5-6.3,5.1c-0.1,0-0.1,0-0.2,0
	c-2.9,0-5.5-1.9-6.4-4.7l-39.6-89.1l-19.2,45.3c-1,2.3-3.3,3.9-5.8,4c-2.5,0.1-4.9-1.2-6.1-3.4L317,537.4L296.2,556
	c-1.3,1.2-3.1,1.8-4.9,1.7c-1.8-0.1-3.5-1-4.6-2.3l-25.6-33.1H196"/>
<g class="st1">
	<g>
		<polygon points="513.8,551.7 506.5,551.7 501.9,551.7 492.2,551.7 506.7,618.7 398.3,684.1 294.3,616.4 302.3,578.7 280.7,578.7 
			270.6,626.2 397.9,709 530.5,629.1 		"/>
	</g>
</g>
<g class="st1">
	<g>
		<polygon points="492.5,450.9 483.1,438.1 483.3,447.5 483.1,438.1 400.5,324.8 308.5,450.2 297.6,501.5 319.1,501.5 328.2,459 
			400.4,360.5 472.8,459.7 477.1,479.9 498.6,479.9 		"/>
	</g>
</g>
<g class="st1">
	<path d="M645.2,442.1h-54.6v24.8H639v15.3h-48.4V508h55.3v15.3h-72.2v-96.6h71.5V442.1z"/>
	<path d="M781.9,494.2c-2.5,6.1-6,11.4-10.5,15.9c-4.5,4.6-9.8,8.2-16,10.8c-6.2,2.7-13,4-20.4,4c-7.5,0-14.3-1.3-20.4-3.9
		s-11.4-6.2-15.9-10.7c-4.4-4.5-7.9-9.8-10.3-15.9c-2.5-6.1-3.7-12.5-3.7-19.3c0-6.8,1.2-13.2,3.7-19.3c2.5-6.1,6-11.4,10.5-15.9
		c4.5-4.6,9.8-8.2,16-10.8c6.2-2.7,13-4,20.4-4s14.3,1.3,20.4,3.9c6.2,2.6,11.4,6.2,15.9,10.7c4.4,4.5,7.9,9.8,10.3,15.9
		c2.5,6.1,3.7,12.5,3.7,19.3C785.7,481.7,784.4,488.2,781.9,494.2z M765.4,461.9c-1.6-4.2-3.9-7.8-6.8-11s-6.4-5.6-10.4-7.5
		c-4.1-1.8-8.5-2.8-13.2-2.8c-4.8,0-9.2,0.9-13.2,2.7c-4,1.8-7.4,4.2-10.3,7.3c-2.9,3.1-5.1,6.7-6.7,10.9c-1.6,4.2-2.4,8.6-2.4,13.3
		c0,4.7,0.8,9.1,2.4,13.3c1.6,4.2,3.9,7.8,6.8,11c2.9,3.1,6.4,5.6,10.4,7.5c4.1,1.8,8.5,2.8,13.2,2.8s9.2-0.9,13.2-2.7
		c4-1.8,7.4-4.2,10.3-7.3s5.1-6.7,6.7-10.9c1.6-4.2,2.4-8.6,2.4-13.3C767.9,470.5,767.1,466.1,765.4,461.9z"/>
	<path d="M843.5,457c0.6,1.4,1.8,2.7,3.5,3.9c1.7,1.2,4.1,2.3,7.1,3.3c3,1,6.8,2.1,11.4,3.2c5.1,1.3,9.6,2.7,13.5,4.3
		c3.9,1.6,7.2,3.5,9.7,5.7c2.6,2.3,4.5,4.9,5.9,7.9s2,6.5,2,10.6c0,4.6-0.8,8.7-2.5,12.3c-1.7,3.6-4,6.6-7,9.1
		c-3,2.5-6.6,4.4-10.9,5.7c-4.2,1.3-8.9,1.9-13.9,1.9c-7.5,0-14.6-1.3-21.4-3.8c-6.8-2.5-13.1-6.4-18.9-11.7l10.2-12.1
		c4.7,4,9.4,7.1,14.2,9.3c4.8,2.2,10.2,3.2,16.3,3.2c5.2,0,9.4-1.1,12.5-3.3c3.1-2.2,4.6-5.2,4.6-9c0-1.7-0.3-3.3-0.9-4.7
		c-0.6-1.4-1.7-2.6-3.3-3.8c-1.6-1.1-3.8-2.2-6.6-3.2s-6.5-2.1-11-3.2c-5.2-1.2-9.8-2.5-13.8-4c-4-1.5-7.4-3.3-10.1-5.5
		c-2.7-2.2-4.8-4.9-6.2-8c-1.4-3.1-2.1-7-2.1-11.4c0-4.2,0.8-8.1,2.5-11.5c1.6-3.5,3.9-6.4,6.8-8.9c2.9-2.5,6.3-4.4,10.4-5.7
		c4-1.3,8.5-2,13.2-2c7.1,0,13.5,1,19.1,3.1c5.7,2.1,11,5.1,15.9,9.1l-9.1,12.8c-4.4-3.2-8.8-5.7-13.1-7.4s-8.7-2.5-13.1-2.5
		c-5,0-8.8,1.1-11.6,3.4c-2.8,2.2-4.1,5-4.1,8.2C842.5,453.9,842.8,455.6,843.5,457z"/>
	<path d="M957.2,426.8v96.6h-16.8v-96.6H957.2z"/>
	<path d="M1098.9,494.2c-2.5,6.1-6,11.4-10.5,15.9c-4.5,4.6-9.8,8.2-16,10.8c-6.2,2.7-13,4-20.4,4c-7.5,0-14.3-1.3-20.4-3.9
		s-11.4-6.2-15.9-10.7c-4.4-4.5-7.9-9.8-10.3-15.9c-2.5-6.1-3.7-12.5-3.7-19.3c0-6.8,1.2-13.2,3.7-19.3c2.5-6.1,6-11.4,10.5-15.9
		c4.5-4.6,9.8-8.2,16-10.8c6.2-2.7,13-4,20.4-4s14.3,1.3,20.4,3.9c6.2,2.6,11.4,6.2,15.9,10.7c4.4,4.5,7.9,9.8,10.3,15.9
		c2.5,6.1,3.7,12.5,3.7,19.3C1102.6,481.7,1101.3,488.2,1098.9,494.2z M1082.4,461.9c-1.6-4.2-3.9-7.8-6.8-11
		c-2.9-3.1-6.4-5.6-10.4-7.5c-4.1-1.8-8.5-2.8-13.2-2.8c-4.8,0-9.2,0.9-13.2,2.7c-4,1.8-7.4,4.2-10.3,7.3s-5.1,6.7-6.7,10.9
		c-1.6,4.2-2.4,8.6-2.4,13.3c0,4.7,0.8,9.1,2.4,13.3c1.6,4.2,3.9,7.8,6.8,11c2.9,3.1,6.4,5.6,10.4,7.5c4.1,1.8,8.5,2.8,13.2,2.8
		s9.2-0.9,13.2-2.7c4-1.8,7.4-4.2,10.3-7.3s5.1-6.7,6.7-10.9c1.6-4.2,2.4-8.6,2.4-13.3C1084.8,470.5,1084,466.1,1082.4,461.9z"/>
	<g>
		<path class="st0" d="M623.2,592.5c-1.5,3.5-3.5,6.5-6.2,9c-2.7,2.5-5.8,4.5-9.5,6c-3.7,1.5-7.7,2.2-12.1,2.2h-21.1v-56.5h21.1
			c4.4,0,8.5,0.7,12.1,2.1c3.7,1.4,6.9,3.4,9.5,5.9c2.7,2.5,4.7,5.5,6.2,9c1.5,3.4,2.2,7.2,2.2,11.1
			C625.4,585.3,624.6,589,623.2,592.5z M613.5,573.7c-0.9-2.4-2.3-4.4-4-6.1c-1.7-1.7-3.8-3.1-6.2-4.1c-2.4-1-5.1-1.5-8.1-1.5h-11.2
			v38.6h11.2c3,0,5.7-0.5,8.1-1.4c2.4-0.9,4.5-2.3,6.2-4c1.7-1.7,3-3.7,4-6.1s1.4-4.9,1.4-7.7C615,578.7,614.5,576.1,613.5,573.7z"
			/>
		<path class="st0" d="M687.6,609.6h-10.5l-5.7-13.6h-26.7l-5.8,13.6h-10.2l24.9-56.9h9.2L687.6,609.6z M658,564.6l-9.7,22.6h19.5
			L658,564.6z"/>
		<path class="st0" d="M705.3,570.8c0.4,0.8,1.1,1.6,2.1,2.3c1,0.7,2.4,1.3,4.1,1.9c1.7,0.6,4,1.2,6.7,1.9c3,0.8,5.6,1.6,7.9,2.5
			c2.3,0.9,4.2,2,5.7,3.3c1.5,1.3,2.7,2.9,3.4,4.6c0.8,1.7,1.2,3.8,1.2,6.2c0,2.7-0.5,5.1-1.5,7.2c-1,2.1-2.4,3.9-4.1,5.3
			c-1.8,1.5-3.9,2.6-6.3,3.3c-2.5,0.8-5.2,1.1-8.1,1.1c-4.4,0-8.5-0.7-12.5-2.2c-4-1.5-7.7-3.8-11.1-6.8l6-7.1
			c2.7,2.4,5.5,4.2,8.3,5.5c2.8,1.3,6,1.9,9.5,1.9c3.1,0,5.5-0.6,7.3-1.9c1.8-1.3,2.7-3,2.7-5.2c0-1-0.2-1.9-0.5-2.7
			c-0.4-0.8-1-1.5-1.9-2.2c-0.9-0.7-2.2-1.3-3.9-1.9c-1.6-0.6-3.8-1.2-6.4-1.9c-3-0.7-5.7-1.5-8.1-2.3c-2.3-0.9-4.3-1.9-5.9-3.2
			s-2.8-2.9-3.6-4.7c-0.8-1.8-1.2-4.1-1.2-6.7c0-2.5,0.5-4.7,1.4-6.7c1-2,2.3-3.8,4-5.2c1.7-1.5,3.7-2.6,6.1-3.4
			c2.4-0.8,4.9-1.2,7.7-1.2c4.1,0,7.9,0.6,11.2,1.8c3.3,1.2,6.4,3,9.3,5.3l-5.3,7.5c-2.6-1.9-5.1-3.3-7.7-4.3
			c-2.5-1-5.1-1.5-7.7-1.5c-2.9,0-5.2,0.7-6.8,2c-1.6,1.3-2.4,2.9-2.4,4.8C704.7,569,704.9,570,705.3,570.8z"/>
		<path class="st0" d="M757.9,585.8v23.8h-9.8v-56.5h9.8v23.5H785v-23.5h9.8v56.5H785v-23.8H757.9z"/>
		<path class="st0" d="M848.2,557c3.3,2.6,5,6.1,5,10.6c0,1.7-0.2,3.3-0.7,4.6s-1,2.5-1.8,3.5c-0.7,1-1.6,1.9-2.6,2.6
			c-1,0.8-2,1.4-3,1.9c1.7,0.6,3.2,1.3,4.5,2.1c1.4,0.8,2.5,1.7,3.5,2.8c1,1.1,1.7,2.3,2.3,3.8c0.5,1.5,0.8,3.2,0.8,5.1
			c0,2.5-0.5,4.8-1.5,6.7c-1,1.9-2.4,3.6-4.2,4.9c-1.8,1.3-4,2.3-6.6,3s-5.4,1-8.5,1h-26.1v-56.5h25.3
			C840.4,553.2,844.9,554.4,848.2,557z M840.5,575.1c1.9-1.3,2.9-3.2,2.9-5.9c0-2.3-0.9-4.1-2.5-5.4c-1.7-1.3-4.1-1.9-7.4-1.9h-14.2
			V577h13.5C836,577,838.5,576.4,840.5,575.1z M843.6,598.9c1.9-1.3,2.9-3.3,2.9-5.8c0-2.4-1-4.3-2.9-5.6c-1.9-1.3-4.8-2-8.7-2
			h-15.7v15.5h16.4C839,600.9,841.7,600.2,843.6,598.9z"/>
		<path class="st0" d="M922.1,592.6c-1.5,3.6-3.5,6.7-6.1,9.3c-2.6,2.7-5.8,4.8-9.4,6.3c-3.6,1.6-7.6,2.3-11.9,2.3
			c-4.4,0-8.3-0.8-11.9-2.3c-3.6-1.5-6.7-3.6-9.3-6.3s-4.6-5.7-6.1-9.3c-1.5-3.6-2.2-7.3-2.2-11.3c0-4,0.7-7.8,2.2-11.3
			c1.5-3.6,3.5-6.7,6.1-9.3c2.6-2.7,5.8-4.8,9.4-6.3c3.6-1.6,7.6-2.3,11.9-2.3c4.4,0,8.3,0.8,11.9,2.3c3.6,1.5,6.7,3.6,9.3,6.3
			c2.6,2.6,4.6,5.7,6.1,9.3c1.5,3.6,2.2,7.3,2.2,11.3C924.2,585.3,923.5,589.1,922.1,592.6z M912.4,573.7c-0.9-2.4-2.3-4.6-4-6.4
			c-1.7-1.8-3.7-3.3-6.1-4.4c-2.4-1.1-5-1.6-7.8-1.6c-2.8,0-5.4,0.5-7.7,1.6c-2.3,1.1-4.3,2.5-6,4.3c-1.7,1.8-3,3.9-3.9,6.4
			c-0.9,2.5-1.4,5-1.4,7.8s0.5,5.3,1.4,7.8c0.9,2.4,2.3,4.6,4,6.4c1.7,1.8,3.7,3.3,6.1,4.4c2.4,1.1,5,1.6,7.7,1.6
			c2.8,0,5.4-0.5,7.7-1.6s4.3-2.5,6-4.3c1.7-1.8,3-3.9,3.9-6.4c0.9-2.4,1.4-5,1.4-7.8C913.8,578.7,913.4,576.1,912.4,573.7z"/>
		<path class="st0" d="M986.9,609.6h-10.5l-5.7-13.6h-26.7l-5.8,13.6H928l24.9-56.9h9.2L986.9,609.6z M957.2,564.6l-9.7,22.6H967
			L957.2,564.6z"/>
		<path class="st0" d="M1032.8,609.6l-13.9-19.7h-12.5v19.7h-9.8v-56.5h25.2c3.2,0,6.1,0.4,8.8,1.2c2.6,0.8,4.8,2,6.6,3.6
			c1.8,1.5,3.2,3.4,4.2,5.6s1.5,4.7,1.5,7.5c0,2.4-0.3,4.5-1,6.3c-0.7,1.9-1.6,3.5-2.8,4.9c-1.2,1.4-2.6,2.6-4.2,3.6
			c-1.6,1-3.5,1.8-5.5,2.3l15.3,21.4H1032.8z M1029.6,564.5c-2-1.6-4.9-2.4-8.7-2.4h-14.5v19h14.6c3.6,0,6.4-0.9,8.5-2.6
			c2.1-1.7,3.2-4.1,3.2-7C1032.6,568.5,1031.6,566.1,1029.6,564.5z"/>
		<path class="st0" d="M1103.8,592.5c-1.5,3.5-3.5,6.5-6.2,9c-2.7,2.5-5.8,4.5-9.5,6c-3.7,1.5-7.7,2.2-12.1,2.2h-21.1v-56.5h21.1
			c4.4,0,8.5,0.7,12.1,2.1c3.7,1.4,6.9,3.4,9.5,5.9c2.7,2.5,4.7,5.5,6.2,9c1.5,3.4,2.2,7.2,2.2,11.1
			C1106,585.3,1105.3,589,1103.8,592.5z M1094.2,573.7c-0.9-2.4-2.3-4.4-4-6.1c-1.7-1.7-3.8-3.1-6.2-4.1c-2.4-1-5.1-1.5-8.1-1.5
			h-11.2v38.6h11.2c3,0,5.7-0.5,8.1-1.4c2.4-0.9,4.5-2.3,6.2-4c1.7-1.7,3-3.7,4-6.1c0.9-2.4,1.4-4.9,1.4-7.7
			C1095.6,578.7,1095.1,576.1,1094.2,573.7z"/>
	</g>
</g>
</svg>
