<?xml version="1.0" standalone="no"?>
<!DOCTYPE svg PUBLIC "-//W3C//DTD SVG 20010904//EN"
 "http://www.w3.org/TR/2001/REC-SVG-20010904/DTD/svg10.dtd">
<svg version="1.0" xmlns="http://www.w3.org/2000/svg"
 width="700.000000pt" height="700.000000pt" viewBox="0 0 700.000000 700.000000"
 preserveAspectRatio="xMidYMid meet">
<metadata>
Created by potrace 1.11, written by Peter Selinger 2001-2013
</metadata>
<g transform="translate(0.000000,700.000000) scale(0.100000,-0.100000)"
fill="#000000" stroke="none">
<path d="M3490 6393 c0 -5 -9 -19 -21 -33 -11 -14 -74 -99 -140 -190 -66 -91
-129 -176 -139 -190 -34 -46 -173 -234 -243 -330 -38 -52 -90 -122 -114 -155
-24 -33 -87 -118 -139 -190 -52 -71 -100 -137 -107 -145 -14 -17 -357 -487
-428 -586 -45 -62 -65 -124 -95 -294 -2 -14 -11 -54 -19 -90 -8 -36 -17 -80
-20 -99 -3 -19 -7 -37 -9 -40 -2 -3 -7 -22 -10 -41 -5 -30 -35 -175 -51 -248
l-6 -22 163 2 163 3 47 220 c26 121 57 264 68 318 l20 98 108 145 c59 80 114
155 122 167 8 12 91 125 184 252 93 126 196 266 227 310 177 244 442 600 447
602 4 1 151 -195 327 -437 176 -241 333 -456 348 -477 15 -21 38 -52 50 -70
12 -17 99 -137 193 -265 177 -243 184 -256 210 -408 18 -104 28 -130 48 -131
23 -1 260 -1 289 0 10 1 16 4 14 9 -3 4 -8 23 -11 42 -7 41 -5 34 -46 225 -18
83 -36 158 -42 168 -5 10 -35 52 -67 95 -32 42 -83 111 -113 152 -77 105 -480
659 -548 751 -30 43 -174 241 -320 440 -145 200 -278 383 -295 406 -28 39 -45
52 -45 36z"/>
<path d="M4022 4233 c-20 -8 -38 -26 -47 -46 -8 -17 -39 -133 -69 -257 -30
-124 -69 -283 -86 -355 -17 -71 -54 -220 -81 -330 -27 -110 -51 -209 -53 -220
-2 -11 -20 -83 -39 -160 -20 -77 -41 -166 -48 -198 l-13 -59 -18 36 c-18 35
-286 624 -358 786 -21 47 -51 114 -68 150 -16 36 -39 88 -52 115 -75 168 -100
212 -125 223 -34 16 -60 15 -94 -3 -33 -17 -29 -8 -166 -330 -58 -137 -125
-294 -147 -347 -23 -54 -45 -98 -49 -98 -4 0 -17 19 -29 43 -166 321 -187 330
-366 168 -46 -42 -168 -151 -217 -193 -11 -10 -23 -18 -26 -18 -4 0 -22 19
-41 42 -57 70 -152 182 -169 199 -9 9 -32 36 -51 60 -71 87 -77 91 -150 84
-36 -3 -76 -8 -90 -10 -14 -2 -70 -9 -125 -15 -55 -6 -115 -13 -132 -15 -73
-10 -180 -22 -215 -24 -10 -1 -18 -4 -18 -8 0 -5 26 -8 58 -9 31 -1 127 -5
212 -9 85 -4 176 -8 203 -9 26 -2 49 -5 51 -7 2 -2 59 -76 127 -164 67 -88
151 -197 186 -242 114 -148 148 -156 250 -63 21 19 76 69 123 110 46 41 98 87
115 102 16 16 33 28 36 28 3 0 13 -15 22 -32 9 -18 29 -55 44 -83 16 -27 50
-89 76 -136 66 -120 78 -132 132 -133 59 -1 82 23 130 139 20 50 43 104 51
120 8 17 55 127 104 245 88 207 110 252 110 219 0 -8 11 -37 24 -65 13 -27 47
-103 76 -169 29 -66 64 -145 77 -175 14 -30 50 -111 80 -180 31 -69 67 -150
80 -180 14 -30 77 -172 140 -315 64 -143 125 -270 136 -282 42 -46 127 -36
154 19 11 20 28 78 38 128 3 12 219 888 330 1334 13 54 26 100 28 102 2 2 45
-139 97 -314 51 -174 103 -351 116 -392 13 -41 30 -100 39 -131 22 -78 44
-101 102 -106 54 -5 62 0 125 92 145 210 362 522 368 528 7 8 75 18 213 32 37
3 76 8 85 10 9 1 55 6 102 10 47 4 92 9 101 10 9 2 52 6 95 10 43 3 88 9 99
12 16 5 -164 52 -295 77 -14 3 -34 7 -45 10 -21 5 -258 56 -285 61 -65 13
-120 16 -137 7 -16 -9 -186 -244 -346 -479 l-35 -53 -21 63 c-11 34 -59 193
-106 352 -198 668 -191 649 -214 669 -30 27 -72 34 -109 19z"/>
<path d="M4904 2982 c-21 -3 -22 -5 -8 -61 7 -32 15 -69 18 -82 3 -19 68 -321
81 -379 2 -8 15 -69 29 -135 15 -66 28 -129 31 -140 2 -11 7 -33 10 -50 4 -16
8 -34 9 -40 2 -5 6 -28 10 -50 4 -22 10 -48 13 -57 3 -13 -6 -23 -31 -35 -20
-9 -36 -20 -36 -25 0 -4 -4 -8 -9 -8 -7 0 -166 -93 -291 -169 -244 -150 -1259
-761 -1264 -761 -3 0 -78 48 -168 107 -90 59 -171 112 -180 118 -29 17 -186
120 -365 237 -95 62 -252 165 -350 228 -97 63 -247 161 -332 217 -86 57 -160
104 -164 106 -4 1 -3 25 3 52 7 28 14 60 16 71 2 12 20 95 39 185 36 168 44
209 48 244 2 19 -4 20 -158 20 l-160 0 -12 -60 c-7 -33 -19 -89 -28 -125 -8
-36 -16 -76 -19 -90 -14 -78 -26 -132 -30 -138 -2 -4 -7 -27 -11 -52 -4 -25
-8 -47 -10 -50 -2 -3 -6 -25 -10 -49 -3 -24 -10 -54 -15 -67 -5 -13 -8 -24 -5
-24 2 0 0 -13 -5 -30 -8 -27 -5 -31 43 -63 128 -85 263 -172 269 -175 3 -2 71
-45 150 -97 78 -51 202 -132 273 -178 72 -47 191 -125 265 -173 74 -49 140
-91 145 -94 6 -3 62 -39 125 -81 111 -73 151 -99 489 -318 l154 -99 39 24 c22
14 54 33 71 43 18 10 194 117 392 236 198 120 385 233 415 250 30 18 116 69
190 114 74 45 142 86 150 90 24 15 735 444 737 445 1 1 -5 33 -13 71 -8 39
-19 90 -24 115 -5 25 -29 138 -54 252 -25 113 -47 217 -50 230 -9 42 -54 252
-66 303 -7 28 -14 61 -16 75 -16 94 -26 120 -47 121 -98 3 -266 3 -283 1z"/>
</g>
</svg>
