<?xml version="1.0" standalone="no"?>
<!DOCTYPE svg PUBLIC "-//W3C//DTD SVG 20010904//EN"
 "http://www.w3.org/TR/2001/REC-SVG-20010904/DTD/svg10.dtd">
<svg version="1.0" xmlns="http://www.w3.org/2000/svg"
 width="1600.000000pt" height="1600.000000pt" viewBox="0 0 1600.000000 1600.000000"
 preserveAspectRatio="xMidYMid meet">
<metadata>
Created by potrace 1.11, written by Peter Selinger 2001-2013
</metadata>
<g transform="translate(0.000000,1600.000000) scale(0.100000,-0.100000)"
fill="#000000" stroke="none">
<path d="M1665 9802 c-401 -548 -733 -1007 -737 -1021 -4 -15 -26 -111 -47
-216 -22 -104 -49 -233 -61 -285 -32 -149 -60 -287 -60 -299 0 -8 55 -11 174
-11 l174 0 16 68 c9 37 42 191 75 342 l58 275 568 775 c312 426 571 779 575
783 7 8 34 -27 743 -999 l417 -572 33 -158 34 -159 176 -3 c97 -1 177 1 177 5
0 5 -21 109 -47 233 l-47 225 -335 460 c-184 253 -419 575 -521 715 -102 140
-282 387 -399 548 -117 160 -218 292 -225 291 -6 0 -339 -448 -741 -997z"/>
<path d="M7573 9184 c-258 -56 -482 -252 -573 -502 -119 -328 -12 -718 251
-916 81 -61 194 -118 284 -142 55 -15 104 -19 230 -19 140 0 169 3 235 23 276
87 478 295 549 567 28 107 29 300 2 407 -77 298 -306 521 -601 583 -88 19
-291 18 -377 -1z m322 -259 c178 -47 324 -204 370 -397 53 -224 -44 -479 -225
-593 -120 -76 -301 -99 -433 -54 -142 48 -258 157 -319 299 -29 68 -32 87 -36
197 -3 105 -1 133 18 195 28 94 75 171 143 235 56 53 151 107 215 122 61 15
203 12 267 -4z"/>
<path d="M9625 9185 c-186 -29 -309 -115 -378 -264 -27 -56 -32 -80 -35 -162
-5 -114 11 -182 60 -255 67 -99 175 -157 409 -219 339 -91 398 -130 387 -260
-6 -67 -35 -108 -101 -143 -49 -25 -60 -27 -177 -26 -104 0 -136 4 -190 23
-68 24 -165 79 -241 136 l-46 35 -82 -97 c-44 -53 -81 -100 -81 -105 0 -14
144 -116 215 -152 39 -19 111 -47 160 -62 83 -26 103 -28 265 -28 164 -1 179
1 246 26 206 76 314 224 314 433 0 214 -117 344 -385 429 -44 14 -118 35 -165
46 -131 33 -232 76 -268 113 -74 77 -43 210 61 264 40 20 177 28 252 14 64
-12 179 -62 257 -112 26 -17 52 -28 58 -24 13 8 140 190 140 202 0 11 -110 84
-175 116 -75 37 -179 66 -280 77 -108 12 -118 12 -220 -5z"/>
<path d="M12650 9185 c-286 -62 -529 -292 -600 -570 -112 -437 116 -853 540
-987 66 -20 95 -23 240 -23 145 0 174 3 240 23 274 86 466 278 545 547 23 76
27 110 28 220 1 172 -29 287 -110 427 -96 164 -278 302 -468 354 -82 23 -327
28 -415 9z m332 -265 c122 -37 239 -134 301 -248 15 -28 36 -85 47 -128 74
-290 -74 -583 -337 -664 -94 -29 -231 -28 -316 3 -136 50 -229 128 -291 246
-48 91 -66 167 -66 276 0 102 15 166 59 261 54 115 199 235 317 263 73 17 217
13 286 -9z"/>
<path d="M5175 9168 c-3 -7 -4 -357 -3 -778 l3 -765 583 -3 582 -2 0 130 0
130 -440 0 -440 0 0 200 0 200 385 0 386 0 -3 128 -3 127 -382 3 -383 2 0 190
0 190 435 0 435 0 0 130 0 130 -575 0 c-451 0 -577 -3 -580 -12z"/>
<path d="M11047 9174 c-4 -4 -7 -355 -7 -781 l0 -773 140 0 140 0 -2 778 -3
777 -131 3 c-71 1 -133 -1 -137 -4z"/>
<path d="M2963 8505 c-17 -7 -38 -24 -47 -37 -8 -13 -38 -118 -66 -233 -28
-116 -84 -345 -124 -510 -41 -165 -109 -443 -151 -618 -43 -175 -81 -315 -85
-310 -4 4 -54 114 -113 243 -58 129 -183 406 -277 615 -95 209 -183 403 -195
431 -12 28 -35 60 -50 72 -36 28 -93 29 -128 1 -30 -23 -19 2 -212 -454 -81
-192 -151 -353 -154 -357 -4 -4 -43 59 -89 141 -45 81 -90 155 -101 165 -26
24 -83 31 -114 15 -14 -8 -105 -85 -202 -172 l-176 -157 -174 204 c-96 112
-182 206 -191 210 -15 6 -146 -4 -271 -20 l-43 -5 0 -45 0 -44 89 0 88 0 212
-275 c121 -155 222 -277 234 -281 35 -11 77 -7 103 10 13 9 94 79 180 156 86
77 159 140 163 140 4 0 51 -81 105 -180 106 -194 136 -230 193 -230 66 0 85
32 247 418 82 193 152 352 156 352 3 0 141 -303 305 -672 373 -841 342 -776
376 -793 51 -27 115 -13 143 30 8 12 60 206 115 431 261 1055 305 1233 309
1230 3 -3 57 -183 198 -661 82 -279 90 -300 119 -319 30 -20 94 -21 122 -1 11
8 120 158 242 334 l222 319 42 6 c23 3 107 12 187 21 80 8 227 24 327 35 101
11 188 20 195 20 36 0 -23 16 -223 61 -123 28 -244 54 -269 59 -25 5 -99 21
-165 35 -66 13 -128 25 -138 25 -32 0 -84 -63 -238 -285 -83 -121 -163 -235
-177 -254 l-25 -33 -167 560 c-92 309 -173 569 -181 578 -13 16 -69 44 -86 44
-4 -1 -22 -7 -40 -15z"/>
<path d="M3875 7148 c15 -74 111 -517 140 -648 68 -303 85 -395 73 -403 -7 -4
-101 -61 -208 -126 -1158 -700 -1496 -903 -1505 -904 -5 0 -271 170 -590 377
-319 208 -689 448 -822 534 -133 87 -242 163 -243 171 0 8 27 142 60 298 33
155 60 287 60 293 0 7 -59 10 -177 8 l-178 -3 -81 -380 c-59 -276 -78 -383
-70 -391 6 -6 81 -56 166 -111 85 -55 454 -295 820 -533 366 -238 751 -488
856 -556 l191 -124 384 231 c211 128 683 412 1049 632 366 220 671 406 679
413 13 12 10 33 -17 156 -17 79 -52 240 -77 358 -26 118 -55 256 -66 305 -11
50 -35 164 -54 253 -19 90 -38 168 -41 173 -3 5 -84 9 -180 9 l-176 0 7 -32z"/>
<path d="M10211 7159 c-78 -15 -169 -65 -230 -127 -298 -297 -88 -803 333
-802 265 1 476 209 476 469 0 302 -275 520 -579 460z m236 -175 c121 -58 192
-210 163 -350 -33 -159 -144 -254 -295 -254 -122 0 -220 64 -274 179 -35 76
-36 201 -3 276 72 158 251 224 409 149z"/>
<path d="M6260 6713 c-107 -245 -195 -451 -195 -457 0 -7 29 -11 80 -11 l79 0
46 107 45 108 214 -3 215 -2 37 -90 c55 -133 47 -125 139 -125 44 0 80 3 80 8
0 4 -88 211 -197 460 l-196 452 -76 0 -76 0 -195 -447z m346 69 l71 -167 -145
-3 c-80 -1 -146 -1 -148 1 -5 5 138 337 145 337 3 0 38 -76 77 -168z"/>
<path d="M7302 7142 c-155 -55 -225 -215 -157 -359 30 -66 86 -104 205 -139
242 -71 270 -87 270 -155 0 -79 -59 -114 -183 -107 -86 5 -127 20 -215 80
l-43 30 -37 -43 c-55 -63 -57 -68 -32 -94 54 -57 198 -113 315 -122 213 -15
355 92 355 269 0 86 -17 125 -77 178 -45 39 -74 51 -284 114 -101 30 -139 61
-139 112 0 23 9 44 28 65 54 61 170 59 295 -6 37 -19 70 -35 72 -35 2 0 23 27
45 60 l41 60 -48 30 c-84 54 -149 73 -258 77 -79 3 -111 0 -153 -15z"/>
<path d="M11051 6718 c-107 -244 -196 -451 -199 -461 -4 -16 3 -18 78 -15 l83
3 46 108 45 107 214 -2 214 -3 40 -95 c22 -52 45 -101 50 -107 12 -14 153 -18
162 -5 2 4 -84 211 -192 460 l-196 452 -76 0 -76 0 -193 -442z m345 57 l72
-165 -149 0 c-82 0 -149 3 -149 6 0 3 25 65 56 137 31 73 63 147 71 166 8 18
17 30 21 27 3 -4 38 -81 78 -171z"/>
<path d="M5190 6695 l0 -455 182 0 c100 0 211 5 247 11 143 24 283 124 341
242 130 268 -14 574 -301 642 -46 10 -121 15 -266 15 l-203 0 0 -455z m452
290 c64 -22 131 -85 164 -150 22 -46 26 -68 26 -135 0 -133 -58 -226 -172
-278 -46 -22 -73 -26 -182 -30 l-128 -5 0 313 0 313 123 -6 c73 -3 141 -12
169 -22z"/>
<path d="M7970 6695 l0 -456 78 3 77 3 3 188 2 187 215 0 215 0 0 -190 0 -191
78 3 77 3 3 453 2 452 -80 0 -80 0 0 -185 0 -185 -215 0 -215 0 0 185 0 185
-80 0 -80 0 0 -455z"/>
<path d="M8950 6695 l0 -457 258 4 c286 5 327 13 403 71 85 65 114 188 68 284
-21 44 -106 113 -138 113 -8 0 4 16 28 36 57 49 81 100 81 171 -1 101 -41 162
-135 205 -47 22 -63 23 -307 26 l-258 3 0 -456z m483 295 c60 -29 76 -116 31
-169 -34 -41 -77 -51 -226 -51 l-128 0 0 121 0 121 148 -4 c99 -3 156 -9 175
-18z m11 -371 c22 -6 52 -24 68 -39 54 -54 29 -144 -48 -176 -24 -10 -80 -14
-194 -14 l-160 0 0 120 0 120 148 0 c81 0 165 -5 186 -11z"/>
<path d="M11942 6698 l3 -453 78 -3 77 -3 0 161 0 161 102 -3 102 -3 108 -152
109 -153 94 0 c52 0 95 2 95 5 0 2 -52 78 -116 167 -64 89 -112 164 -107 165
38 13 123 75 149 110 89 116 58 312 -61 395 -71 50 -125 58 -393 58 l-242 0 2
-452z m497 284 c54 -27 76 -65 76 -127 0 -64 -22 -99 -81 -129 -34 -18 -58
-21 -184 -21 l-145 0 -3 148 -3 147 153 0 c126 0 159 -3 187 -18z"/>
<path d="M12880 6695 l0 -455 182 0 c100 0 211 5 247 11 254 43 425 275 383
520 -24 139 -114 264 -234 325 -86 44 -156 54 -375 54 l-203 0 0 -455z m452
290 c142 -50 223 -212 184 -365 -42 -162 -153 -230 -373 -230 l-103 0 0 311 0
312 123 -6 c76 -3 140 -11 169 -22z"/>
</g>
</svg>
