<svg width="441" height="186" viewBox="0 0 441 186" fill="none" xmlns="http://www.w3.org/2000/svg">
<path d="M0 95.6783L34.94 92.2423C35.9079 92.2423 36.7306 93.4038 37.3597 94.0813L46.6512 104.97L57.2977 95.4847C58.0236 94.8072 59.0399 94.5652 60.0078 94.7104C60.9756 94.8556 61.7983 95.4847 62.2823 96.3074L67.2184 105.163L77.3326 81.3538C77.8649 80.144 79.1231 79.3697 80.4782 79.4181C81.8332 79.5149 82.9946 80.386 83.3818 81.6926L101.626 122.004L113.87 71.8203C114.208 70.4169 115.467 69.4007 116.918 69.3523H117.015C118.419 69.3523 119.725 70.2718 120.112 71.6752L130.081 105.163L141.309 89.0484C141.793 88.3225 142.567 87.8385 143.39 87.6934C144.261 87.5482 167.973 92.9198 167.973 92.9198L144.745 95.3879L131.533 114.406C130.807 115.423 129.597 115.955 128.388 115.761C127.178 115.568 126.161 114.697 125.823 113.487L117.354 84.9349L105.062 134.732C104.723 136.135 103.465 137.151 102.013 137.2H101.916C100.513 137.2 99.2548 136.28 98.8193 134.925L79.6555 91.8068L70.364 113.729C69.88 114.842 68.767 115.616 67.5571 115.665C66.3473 115.713 65.1859 115.084 64.6051 114.019L58.556 102.986L48.4902 111.987C47.861 112.568 46.99 112.858 46.1189 112.81C45.2478 112.761 44.4251 112.326 43.8928 111.696L31.5041 95.6783H0Z" fill="#1CCBFF"/>
<path d="M153.794 109.877H143.341L150.358 142.301L97.8999 173.95L47.5708 141.188L51.4423 122.944H40.9893L36.1016 145.93L97.7063 186L161.876 147.334L153.794 109.877Z" fill="black"/>
<path d="M143.483 61.024L138.934 54.8297L139.031 59.3786L138.934 54.8297L98.9609 0L54.4391 60.6853L49.1642 85.5111H59.5688L63.9725 64.9439L98.9125 17.2764L133.949 65.2826L136.03 75.0581H146.435L143.483 61.024Z" fill="black"/>
<path d="M217.383 56.8379H190.96V68.8395H214.383V76.2437H190.96V88.7292H217.722V96.1334H182.782V49.3854H217.383V56.8379Z" fill="black"/>
<path d="M283.534 81.9983C282.324 84.9503 280.63 87.5152 278.452 89.6929C276.275 91.919 273.71 93.6611 270.709 94.9194C267.709 96.226 264.418 96.8551 260.837 96.8551C257.208 96.8551 253.917 96.226 250.965 94.9678C248.013 93.7095 245.448 91.9674 243.27 89.7897C241.141 87.612 239.447 85.0471 238.286 82.0951C237.076 79.1431 236.495 76.046 236.495 72.7552C236.495 69.4645 237.076 66.3673 238.286 63.4153C239.496 60.4633 241.189 57.8984 243.367 55.7207C245.545 53.4947 248.11 51.7525 251.11 50.4943C254.11 49.1876 257.401 48.5585 260.982 48.5585C264.563 48.5585 267.902 49.1876 270.854 50.4459C273.855 51.7041 276.371 53.4463 278.549 55.624C280.678 57.8017 282.372 60.3665 283.534 63.3185C284.743 66.2705 285.324 69.3677 285.324 72.6584C285.372 75.9492 284.743 79.0947 283.534 81.9983ZM275.549 66.3673C274.774 64.3348 273.661 62.5926 272.258 61.044C270.854 59.4954 269.161 58.334 267.225 57.4145C265.241 56.5434 263.112 56.0595 260.837 56.0595C258.514 56.0595 256.385 56.495 254.449 57.3661C252.513 58.2372 250.868 59.3986 249.465 60.8988C248.061 62.399 246.997 64.1412 246.222 66.1737C245.448 68.2062 245.061 70.3355 245.061 72.61C245.061 74.8845 245.448 77.0138 246.222 79.0463C246.997 81.0789 248.11 82.821 249.513 84.3696C250.916 85.8698 252.61 87.0796 254.546 87.9991C256.53 88.8702 258.659 89.3541 260.934 89.3541C263.208 89.3541 265.386 88.9186 267.322 88.0475C269.257 87.1764 270.903 86.015 272.306 84.5148C273.71 83.0146 274.774 81.2724 275.549 79.2399C276.323 77.2074 276.71 75.0781 276.71 72.8036C276.758 70.5291 276.371 68.3998 275.549 66.3673Z" fill="black"/>
<path d="M313.35 63.9903C313.641 64.6678 314.221 65.2969 315.044 65.8776C315.867 66.4583 317.028 66.9907 318.48 67.4746C319.932 67.9585 321.771 68.4908 323.997 69.0232C326.465 69.6523 328.643 70.3298 330.53 71.1041C332.417 71.8784 334.014 72.7979 335.224 73.8625C336.482 74.9756 337.402 76.2338 338.079 77.6856C338.757 79.1374 339.047 80.8312 339.047 82.8153C339.047 85.0414 338.66 87.0255 337.837 88.7677C337.015 90.5098 335.902 91.9616 334.45 93.1715C332.998 94.3813 331.256 95.3008 329.175 95.9299C327.142 96.559 324.868 96.8494 322.448 96.8494C318.819 96.8494 315.383 96.2203 312.092 95.0104C308.801 93.8006 305.752 91.9132 302.946 89.3484L307.882 83.4928C310.156 85.4285 312.431 86.9287 314.754 87.9934C317.077 89.058 319.69 89.542 322.642 89.542C325.158 89.542 327.191 89.0096 328.691 87.945C330.191 86.8803 330.917 85.4285 330.917 83.5896C330.917 82.7669 330.772 81.9926 330.481 81.3151C330.191 80.6376 329.659 80.0569 328.885 79.4761C328.11 78.9438 327.046 78.4115 325.691 77.9276C324.336 77.4436 322.545 76.9113 320.367 76.379C317.851 75.7983 315.625 75.1691 313.689 74.4432C311.753 73.7173 310.108 72.8463 308.801 71.7816C307.495 70.7169 306.478 69.4103 305.801 67.9101C305.123 66.4099 304.785 64.5226 304.785 62.3933C304.785 60.3608 305.172 58.4734 305.994 56.828C306.769 55.1343 307.882 53.7309 309.285 52.521C310.689 51.3112 312.334 50.3917 314.318 49.7626C316.254 49.1335 318.432 48.7947 320.706 48.7947C324.142 48.7947 327.239 49.2787 329.949 50.2949C332.708 51.3112 335.272 52.763 337.644 54.6987L333.24 60.8931C331.111 59.3445 328.981 58.1347 326.9 57.312C324.819 56.4893 322.69 56.1021 320.561 56.1021C318.141 56.1021 316.302 56.6345 314.947 57.7475C313.592 58.8122 312.963 60.1672 312.963 61.7158C312.866 62.4901 313.011 63.3128 313.35 63.9903Z" fill="black"/>
<path d="M368.37 49.3856H360.24V96.1335H368.37V49.3856Z" fill="black"/>
<path d="M436.941 81.9983C435.731 84.9503 434.037 87.5152 431.86 89.6929C429.682 91.919 427.117 93.6611 424.117 94.9194C421.116 96.226 417.825 96.8551 414.244 96.8551C410.615 96.8551 407.324 96.226 404.372 94.9678C401.42 93.7095 398.855 91.9674 396.678 89.7897C394.548 87.612 392.855 85.0471 391.693 82.0951C390.483 79.1431 389.903 76.046 389.903 72.7552C389.903 69.4645 390.483 66.3673 391.693 63.4153C392.903 60.4633 394.597 57.8984 396.774 55.7207C398.952 53.4947 401.517 51.7525 404.517 50.4943C407.518 49.1876 410.808 48.5585 414.39 48.5585C417.971 48.5585 421.31 49.1876 424.262 50.4459C427.262 51.7041 429.779 53.4463 431.956 55.624C434.086 57.8017 435.779 60.3665 436.941 63.3185C438.151 66.2705 438.731 69.3677 438.731 72.6584C438.731 75.9492 438.102 79.0947 436.941 81.9983ZM428.956 66.3673C428.182 64.3348 427.069 62.5926 425.665 61.044C424.262 59.5438 422.568 58.334 420.632 57.4145C418.648 56.5434 416.519 56.0595 414.244 56.0595C411.921 56.0595 409.792 56.495 407.856 57.3661C405.921 58.2372 404.275 59.3986 402.872 60.8988C401.469 62.399 400.404 64.1412 399.63 66.1737C398.855 68.2062 398.468 70.3355 398.468 72.61C398.468 74.8845 398.855 77.0138 399.63 79.0463C400.404 81.0789 401.517 82.821 402.92 84.3696C404.324 85.8698 406.018 87.0796 407.953 87.9991C409.937 88.8702 412.067 89.3541 414.341 89.3541C416.616 89.3541 418.793 88.9186 420.729 88.0475C422.665 87.1764 424.31 86.015 425.714 84.5148C427.117 83.0146 428.182 81.2724 428.956 79.2399C429.73 77.2074 430.117 75.0781 430.117 72.8036C430.117 70.5291 429.73 68.3998 428.956 66.3673Z" fill="black"/>
<path d="M206.735 129.603C206.009 131.296 205.041 132.748 203.734 133.958C202.428 135.168 200.927 136.136 199.137 136.862C197.346 137.587 195.411 137.926 193.281 137.926H183.07V110.584H193.281C195.411 110.584 197.395 110.923 199.137 111.6C200.927 112.278 202.476 113.246 203.734 114.455C205.041 115.665 206.009 117.117 206.735 118.811C207.46 120.456 207.799 122.295 207.799 124.182C207.799 126.118 207.412 127.909 206.735 129.603ZM202.04 120.505C201.605 119.343 200.927 118.375 200.105 117.553C199.282 116.73 198.266 116.052 197.104 115.568C195.943 115.085 194.636 114.843 193.184 114.843H187.764V133.522H193.184C194.636 133.522 195.943 133.28 197.104 132.845C198.266 132.409 199.282 131.732 200.105 130.909C200.927 130.086 201.556 129.119 202.04 127.957C202.524 126.796 202.718 125.586 202.718 124.231C202.766 122.924 202.524 121.666 202.04 120.505Z" fill="#1CCBFF"/>
<path d="M237.898 137.768H232.817L230.059 131.186H217.138L214.331 137.768H209.395L221.445 110.232H225.897L237.898 137.768ZM223.574 115.991L218.88 126.928H228.317L223.574 115.991Z" fill="#1CCBFF"/>
<path d="M246.465 119.088C246.659 119.475 246.998 119.862 247.482 120.201C247.966 120.539 248.643 120.83 249.466 121.12C250.288 121.41 251.401 121.701 252.708 122.04C254.16 122.427 255.418 122.814 256.531 123.249C257.644 123.685 258.564 124.217 259.29 124.846C260.015 125.475 260.596 126.25 260.935 127.072C261.322 127.895 261.516 128.911 261.516 130.073C261.516 131.379 261.274 132.541 260.79 133.557C260.306 134.573 259.628 135.445 258.806 136.122C257.935 136.848 256.918 137.38 255.757 137.719C254.547 138.106 253.24 138.251 251.837 138.251C249.708 138.251 247.724 137.913 245.788 137.187C243.852 136.461 242.062 135.348 240.416 133.896L243.32 130.46C244.626 131.621 245.981 132.493 247.336 133.122C248.691 133.751 250.24 134.041 251.934 134.041C253.434 134.041 254.595 133.751 255.466 133.122C256.338 132.493 256.773 131.67 256.773 130.605C256.773 130.121 256.676 129.686 256.531 129.299C256.338 128.911 256.047 128.573 255.612 128.234C255.176 127.895 254.547 127.605 253.724 127.314C252.95 127.024 251.885 126.734 250.627 126.395C249.175 126.056 247.869 125.669 246.707 125.282C245.594 124.846 244.626 124.362 243.852 123.733C243.078 123.104 242.497 122.33 242.11 121.459C241.723 120.588 241.529 119.475 241.529 118.216C241.529 117.007 241.771 115.942 242.207 114.974C242.691 114.006 243.32 113.135 244.142 112.458C244.965 111.732 245.933 111.199 247.094 110.812C248.256 110.425 249.466 110.232 250.821 110.232C252.805 110.232 254.644 110.522 256.241 111.103C257.838 111.683 259.338 112.554 260.741 113.667L258.177 117.297C256.918 116.378 255.708 115.7 254.45 115.216C253.24 114.732 251.982 114.49 250.724 114.49C249.321 114.49 248.207 114.829 247.433 115.458C246.659 116.087 246.272 116.861 246.272 117.781C246.175 118.216 246.272 118.7 246.465 119.088Z" fill="#1CCBFF"/>
<path d="M271.919 126.293V137.81H267.177V110.468H271.919V121.841H285.034V110.468H289.777V137.81H285.034V126.293H271.919Z" fill="#1CCBFF"/>
<path d="M315.62 112.355C317.217 113.614 318.039 115.307 318.039 117.485C318.039 118.308 317.943 119.082 317.701 119.711C317.459 120.34 317.217 120.921 316.83 121.405C316.491 121.889 316.055 122.324 315.571 122.663C315.087 123.05 314.604 123.341 314.12 123.583C314.942 123.873 315.668 124.212 316.297 124.599C316.975 124.986 317.507 125.422 317.991 125.954C318.475 126.486 318.814 127.067 319.104 127.793C319.346 128.519 319.491 129.341 319.491 130.261C319.491 131.471 319.249 132.584 318.765 133.503C318.281 134.423 317.604 135.245 316.733 135.875C315.862 136.504 314.797 136.988 313.539 137.326C312.281 137.665 310.926 137.81 309.425 137.81H296.795V110.468H309.038C311.845 110.516 314.023 111.097 315.62 112.355ZM311.894 121.115C312.813 120.485 313.297 119.566 313.297 118.259C313.297 117.146 312.861 116.275 312.087 115.646C311.264 115.017 310.103 114.727 308.506 114.727H301.634V122.034H308.167C309.716 122.034 310.926 121.744 311.894 121.115ZM313.394 132.632C314.313 132.003 314.797 131.035 314.797 129.825C314.797 128.664 314.313 127.744 313.394 127.115C312.474 126.486 311.071 126.148 309.183 126.148H301.586V133.648H309.522C311.168 133.6 312.474 133.261 313.394 132.632Z" fill="#1CCBFF"/>
<path d="M351.379 129.595C350.653 131.337 349.685 132.837 348.427 134.095C347.169 135.402 345.62 136.418 343.878 137.144C342.136 137.918 340.2 138.257 338.119 138.257C335.99 138.257 334.103 137.87 332.361 137.144C330.618 136.418 329.118 135.402 327.86 134.095C326.602 132.789 325.634 131.337 324.908 129.595C324.182 127.853 323.843 126.062 323.843 124.126C323.843 122.191 324.182 120.352 324.908 118.658C325.634 116.916 326.602 115.416 327.86 114.157C329.118 112.851 330.667 111.834 332.409 111.109C334.151 110.334 336.087 109.995 338.168 109.995C340.297 109.995 342.184 110.383 343.927 111.109C345.669 111.834 347.169 112.851 348.427 114.157C349.685 115.416 350.653 116.916 351.379 118.658C352.105 120.4 352.444 122.191 352.444 124.126C352.395 126.062 352.057 127.901 351.379 129.595ZM346.685 120.448C346.249 119.287 345.572 118.222 344.749 117.351C343.927 116.48 342.959 115.754 341.797 115.222C340.636 114.69 339.378 114.448 338.023 114.448C336.668 114.448 335.409 114.69 334.296 115.222C333.183 115.754 332.215 116.432 331.393 117.303C330.57 118.174 329.941 119.19 329.505 120.4C329.07 121.61 328.828 122.82 328.828 124.175C328.828 125.53 329.07 126.74 329.505 127.949C329.941 129.111 330.618 130.175 331.441 131.047C332.264 131.918 333.232 132.644 334.393 133.176C335.555 133.708 336.813 133.95 338.119 133.95C339.474 133.95 340.733 133.708 341.846 133.176C342.959 132.644 343.927 131.966 344.749 131.095C345.572 130.224 346.201 129.208 346.637 127.998C347.072 126.836 347.314 125.578 347.314 124.223C347.363 122.868 347.169 121.61 346.685 120.448Z" fill="#1CCBFF"/>
<path d="M382.74 137.768H377.659L374.901 131.186H361.98L359.173 137.768H354.237L366.287 110.232H370.739L382.74 137.768ZM368.368 115.991L363.673 126.928H373.11L368.368 115.991Z" fill="#1CCBFF"/>
<path d="M404.955 137.81L398.228 128.277H392.179V137.81H387.436V110.468H399.631C401.18 110.468 402.583 110.662 403.89 111.049C405.148 111.436 406.213 112.017 407.084 112.791C407.955 113.517 408.633 114.436 409.117 115.501C409.601 116.566 409.842 117.775 409.842 119.13C409.842 120.292 409.697 121.308 409.359 122.179C409.02 123.099 408.584 123.873 408.004 124.551C407.423 125.228 406.745 125.809 405.971 126.293C405.197 126.777 404.277 127.164 403.309 127.406L410.714 137.762H404.955V137.81ZM403.406 115.985C402.438 115.211 401.035 114.823 399.196 114.823H392.179V124.018H399.244C400.986 124.018 402.341 123.583 403.358 122.76C404.374 121.937 404.906 120.776 404.906 119.372C404.858 117.921 404.374 116.759 403.406 115.985Z" fill="#1CCBFF"/>
<path d="M439.316 129.604C438.59 131.298 437.622 132.75 436.315 133.96C435.009 135.17 433.509 136.138 431.718 136.863C429.928 137.589 427.992 137.928 425.862 137.928H415.651V110.586H425.862C427.992 110.586 429.976 110.925 431.718 111.602C433.509 112.28 435.057 113.247 436.315 114.457C437.622 115.667 438.59 117.119 439.316 118.813C440.042 120.458 440.381 122.297 440.381 124.184C440.381 126.12 440.042 127.911 439.316 129.604ZM434.67 120.506C434.235 119.345 433.557 118.377 432.734 117.554C431.912 116.732 430.895 116.054 429.734 115.57C428.573 115.086 427.266 114.844 425.814 114.844H420.394V133.524H425.814C427.266 133.524 428.573 133.282 429.734 132.847C430.895 132.411 431.912 131.734 432.734 130.911C433.557 130.088 434.186 129.12 434.67 127.959C435.106 126.798 435.348 125.588 435.348 124.233C435.348 122.926 435.106 121.668 434.67 120.506Z" fill="#1CCBFF"/>
</svg>
