<svg width="39" height="38" viewBox="0 0 39 38" fill="none" xmlns="http://www.w3.org/2000/svg">
<path fill-rule="evenodd" clip-rule="evenodd" d="M19.8276 0.897949C9.35273 0.897949 0.859863 9.39081 0.859863 19.868C0.859863 28.2491 6.29469 35.3585 13.8326 37.8681C14.7817 38.0416 15.1276 37.4558 15.1276 36.9527C15.1276 36.5032 15.1113 35.3096 15.102 33.727C9.82552 34.8729 8.71224 31.1837 8.71224 31.1837C7.84933 28.9932 6.60562 28.4098 6.60562 28.4098C4.88329 27.2325 6.73605 27.2558 6.73605 27.2558C8.64004 27.3908 9.64153 29.211 9.64153 29.211C11.3336 32.1095 14.0819 31.2722 15.1625 30.7878C15.3349 29.5615 15.824 28.7254 16.3666 28.2514C12.1546 27.7728 7.72589 26.1448 7.72589 18.8759C7.72589 16.8053 8.46536 15.1121 9.67879 13.7857C9.48315 13.3059 8.83219 11.3775 9.86395 8.76546C9.86395 8.76546 11.457 8.2554 15.081 10.7102C16.5937 10.2898 18.2171 10.079 19.8299 10.0721C21.4405 10.079 23.0638 10.2898 24.5789 10.7102C28.2005 8.2554 29.7901 8.76546 29.7901 8.76546C30.8254 11.3775 30.1744 13.3059 29.9788 13.7857C31.1945 15.1121 31.9293 16.8053 31.9293 18.8759C31.9293 26.1634 27.4937 27.767 23.2676 28.2363C23.9489 28.822 24.5556 29.9796 24.5556 31.7497C24.5556 34.2848 24.5323 36.3309 24.5323 36.9527C24.5323 37.4605 24.8735 38.0509 25.8365 37.8657C33.3687 35.3515 38.7989 28.2468 38.7989 19.868C38.7989 9.39081 30.3048 0.897949 19.8276 0.897949Z" fill="#1565C0"/>
</svg>
