<svg width="37" height="37" viewBox="0 0 37 37" fill="none" xmlns="http://www.w3.org/2000/svg">
<path fill-rule="evenodd" clip-rule="evenodd" d="M3.33518 0.377075C1.93055 0.377075 0.79187 1.51575 0.79187 2.92039V33.6649C0.79187 35.0696 1.93055 36.2082 3.33519 36.2082H34.0798C35.4845 36.2082 36.6231 35.0696 36.6231 33.6649V2.92039C36.6231 1.51576 35.4845 0.377075 34.0798 0.377075H3.33518ZM8.83434 11.5045C10.551 11.5045 11.9427 10.1128 11.9427 8.39614C11.9427 6.67944 10.551 5.28778 8.83434 5.28778C7.11765 5.28778 5.72599 6.67944 5.72599 8.39614C5.72599 10.1128 7.11765 11.5045 8.83434 11.5045ZM14.7894 13.8017H19.941V16.1616C19.941 16.1616 21.3389 13.3657 25.1425 13.3657C28.5355 13.3657 31.3462 15.0372 31.3462 20.1319V30.8753H26.0077V21.4337C26.0077 18.4283 24.4032 18.0978 23.1805 18.0978C20.6431 18.0978 20.2087 20.2865 20.2087 21.8258V30.8753H14.7894V13.8017ZM11.544 13.8017H6.12471V30.8753H11.544V13.8017Z" fill="#1565C0"/>
</svg>
