<svg width="118" height="41" viewBox="0 0 118 41" fill="none" xmlns="http://www.w3.org/2000/svg">
<path d="M16.2149 3.77904H4.1545V9.25704H14.8454V12.6366H4.1545V18.3355H16.3696V21.7151H0.421509V0.37738H16.2149V3.77904Z" fill="black"/>
<path d="M46.4086 15.2633C45.8564 16.6107 45.0833 17.7814 44.0893 18.7754C43.0953 19.7915 41.9246 20.5867 40.5551 21.161C39.1856 21.7574 37.6835 22.0445 36.049 22.0445C34.3923 22.0445 32.8903 21.7574 31.5429 21.1831C30.1955 20.6088 29.0248 19.8136 28.0308 18.8196C27.0589 17.8256 26.2858 16.6549 25.7556 15.3075C25.2034 13.9601 24.9384 12.5464 24.9384 11.0444C24.9384 9.54232 25.2034 8.12864 25.7556 6.78123C26.3079 5.43382 27.081 4.26312 28.0749 3.26913C29.0689 2.25305 30.2396 1.45785 31.6091 0.883547C32.9786 0.287152 34.4807 0 36.1152 0C37.7498 0 39.2739 0.287152 40.6213 0.861458C41.9908 1.43576 43.1394 2.23096 44.1334 3.22495C45.1053 4.21894 45.8784 5.38964 46.4086 6.73705C46.9608 8.08446 47.2259 9.49814 47.2259 11.0002C47.248 12.5022 46.9608 13.938 46.4086 15.2633ZM42.7639 8.12864C42.4105 7.20092 41.9025 6.40572 41.2619 5.69889C40.6213 4.99205 39.8482 4.46192 38.9647 4.04223C38.059 3.64464 37.0871 3.42375 36.049 3.42375C34.9887 3.42375 34.0168 3.62255 33.1333 4.02014C32.2497 4.41774 31.4987 4.94787 30.8581 5.63262C30.2176 6.31737 29.7316 7.11256 29.3782 8.04029C29.0248 8.96801 28.8481 9.93992 28.8481 10.9781C28.8481 12.0163 29.0248 12.9882 29.3782 13.9159C29.7316 14.8436 30.2396 15.6388 30.8802 16.3456C31.5208 17.0304 32.2939 17.5826 33.1774 18.0023C34.0831 18.3999 35.055 18.6208 36.0932 18.6208C37.1313 18.6208 38.1253 18.422 39.0089 18.0244C39.8924 17.6268 40.6434 17.0967 41.284 16.4119C41.9246 15.7272 42.4105 14.932 42.7639 14.0042C43.1174 13.0765 43.2941 12.1046 43.2941 11.0664C43.3162 10.0283 43.1395 9.05637 42.7639 8.12864Z" fill="black"/>
<path d="M60.0181 7.04371C60.1506 7.35295 60.4157 7.6401 60.7912 7.90517C61.1667 8.17023 61.6969 8.41321 62.3595 8.6341C63.0222 8.85498 63.8615 9.09796 64.8776 9.34093C66.0041 9.62809 66.9981 9.93733 67.8596 10.2907C68.7211 10.6442 69.45 11.0639 70.0022 11.5498C70.5765 12.0578 70.9962 12.6322 71.3054 13.2948C71.6147 13.9575 71.7472 14.7306 71.7472 15.6362C71.7472 16.6523 71.5705 17.5579 71.195 18.3531C70.8195 19.1483 70.3114 19.811 69.6488 20.3632C68.9861 20.9154 68.1909 21.3351 67.2411 21.6223C66.3134 21.9094 65.2752 22.0419 64.1708 22.0419C62.5141 22.0419 60.9458 21.7548 59.4438 21.2026C57.9418 20.6504 56.5502 19.7889 55.269 18.6182L57.5221 15.9455C58.5603 16.829 59.5984 17.5138 60.6587 17.9997C61.7189 18.4857 62.9117 18.7066 64.2591 18.7066C65.4078 18.7066 66.3355 18.4636 67.0202 17.9776C67.705 17.4917 68.0363 16.829 68.0363 15.9896C68.0363 15.6141 67.97 15.2607 67.8375 14.9515C67.705 14.6422 67.462 14.3772 67.1086 14.1121C66.7552 13.8691 66.2692 13.6261 65.6507 13.4053C65.0322 13.1844 64.215 12.9414 63.221 12.6984C62.0724 12.4334 61.0563 12.1462 60.1727 11.8149C59.2892 11.4835 58.5382 11.0859 57.9418 10.6C57.3454 10.114 56.8815 9.51764 56.5723 8.83289C56.263 8.14814 56.1084 7.28669 56.1084 6.31478C56.1084 5.38706 56.2851 4.52559 56.6606 3.77458C57.0141 3.00147 57.5221 2.3609 58.1627 1.80868C58.8032 1.25646 59.5542 0.836779 60.4599 0.549625C61.3434 0.262472 62.3374 0.107849 63.3756 0.107849C64.9439 0.107849 66.3576 0.328739 67.5945 0.792602C68.8536 1.25647 70.0243 1.91913 71.1066 2.80268L69.0966 5.63003C68.1247 4.92319 67.1528 4.37097 66.203 3.99546C65.2531 3.61996 64.2812 3.44325 63.3093 3.44325C62.2049 3.44325 61.3655 3.68622 60.747 4.19426C60.1286 4.68021 59.8414 5.2987 59.8414 6.00554C59.7972 6.35896 59.8635 6.73447 60.0181 7.04371Z" fill="black"/>
<path d="M85.1316 0.377441H81.4207V21.7151H85.1316V0.377441Z" fill="black"/>
<path d="M116.43 15.2633C115.878 16.6107 115.105 17.7814 114.111 18.7754C113.117 19.7915 111.946 20.5867 110.576 21.161C109.207 21.7574 107.705 22.0445 106.07 22.0445C104.414 22.0445 102.912 21.7574 101.564 21.1831C100.217 20.6088 99.0461 19.8136 98.0521 18.8196C97.0802 17.8256 96.3071 16.6549 95.777 15.3075C95.2248 13.9601 94.9597 12.5464 94.9597 11.0444C94.9597 9.54232 95.2248 8.12864 95.777 6.78123C96.3292 5.43382 97.1023 4.26312 98.0963 3.26913C99.0903 2.25305 100.261 1.45785 101.631 0.883547C103 0.287152 104.502 0 106.137 0C107.771 0 109.295 0.287152 110.643 0.861458C112.012 1.43576 113.161 2.23096 114.155 3.22495C115.127 4.21894 115.9 5.38964 116.43 6.73705C116.982 8.08446 117.247 9.49814 117.247 11.0002C117.247 12.5022 116.96 13.938 116.43 15.2633ZM112.785 8.12864C112.432 7.20092 111.924 6.40572 111.283 5.69889C110.643 5.01414 109.87 4.46192 108.986 4.04223C108.08 3.64464 107.108 3.42375 106.07 3.42375C105.01 3.42375 104.038 3.62255 103.155 4.02014C102.271 4.41774 101.52 4.94787 100.879 5.63262C100.239 6.31737 99.753 7.11256 99.3995 8.04029C99.0461 8.96801 98.8694 9.93992 98.8694 10.9781C98.8694 12.0163 99.0461 12.9882 99.3995 13.9159C99.753 14.8436 100.261 15.6388 100.902 16.3456C101.542 17.0304 102.315 17.5826 103.199 18.0023C104.104 18.3999 105.076 18.6208 106.115 18.6208C107.153 18.6208 108.147 18.422 109.03 18.0244C109.914 17.6268 110.665 17.0967 111.305 16.4119C111.946 15.7272 112.432 14.932 112.785 14.0042C113.139 13.0765 113.315 12.1046 113.315 11.0664C113.315 10.0283 113.139 9.05637 112.785 8.12864Z" fill="black"/>
<path d="M11.3545 36.9918C11.0231 37.765 10.5814 38.4276 9.98498 38.9798C9.38859 39.5321 8.70384 39.9738 7.88655 40.3052C7.06927 40.6365 6.18572 40.7911 5.21382 40.7911H0.553101V28.311H5.21382C6.18572 28.311 7.09136 28.4656 7.88655 28.7748C8.70384 29.0841 9.41068 29.5259 9.98498 30.0781C10.5814 30.6303 11.0231 31.293 11.3545 32.0661C11.6858 32.8171 11.8404 33.6564 11.8404 34.5179C11.8404 35.4015 11.6637 36.2187 11.3545 36.9918ZM9.21187 32.8392C9.01307 32.309 8.70384 31.8673 8.32833 31.4918C7.95282 31.1162 7.48896 30.807 6.95883 30.5861C6.4287 30.3652 5.8323 30.2548 5.16964 30.2548H2.69571V38.781H5.16964C5.8323 38.781 6.4287 38.6706 6.95883 38.4718C7.48896 38.273 7.95282 37.9637 8.32833 37.5882C8.70384 37.2127 8.99098 36.771 9.21187 36.2408C9.43276 35.7107 9.52112 35.1585 9.52112 34.54C9.54321 33.9436 9.43276 33.3693 9.21187 32.8392Z" fill="#1CCBFF"/>
<path d="M25.5788 40.7188H23.2595L22.0005 37.7147H16.1028L14.8217 40.7188H12.5686L18.0687 28.1503H20.1008L25.5788 40.7188ZM19.0406 30.7789L16.898 35.7709H21.2053L19.0406 30.7789Z" fill="#1CCBFF"/>
<path d="M29.4891 32.1924C29.5775 32.3691 29.7321 32.5458 29.953 32.7004C30.1739 32.8551 30.4831 32.9876 30.8586 33.1201C31.2341 33.2526 31.7422 33.3852 32.3386 33.5398C33.0012 33.7165 33.5755 33.8932 34.0836 34.092C34.5916 34.2908 35.0113 34.5338 35.3426 34.8209C35.674 35.1081 35.939 35.4615 36.0936 35.837C36.2703 36.2125 36.3587 36.6764 36.3587 37.2065C36.3587 37.8029 36.2483 38.3331 36.0274 38.7969C35.8065 39.2608 35.4972 39.6584 35.1217 39.9676C34.7241 40.299 34.2603 40.5419 33.7301 40.6966C33.1779 40.8733 32.5815 40.9395 31.941 40.9395C30.9691 40.9395 30.0634 40.7849 29.1799 40.4536C28.2963 40.1222 27.479 39.6142 26.728 38.9515L28.0534 37.3832C28.6497 37.9134 29.2682 38.311 29.8867 38.5981C30.5052 38.8853 31.212 39.0178 31.9851 39.0178C32.6699 39.0178 33.2 38.8853 33.5976 38.5981C33.9952 38.311 34.194 37.9355 34.194 37.4495C34.194 37.2286 34.1498 37.0298 34.0836 36.8531C33.9952 36.6764 33.8627 36.5218 33.6639 36.3672C33.4651 36.2125 33.1779 36.08 32.8024 35.9475C32.449 35.8149 31.963 35.6824 31.3887 35.5278C30.7261 35.3732 30.1297 35.1965 29.5996 35.0197C29.0915 34.8209 28.6498 34.6001 28.2963 34.3129C27.9429 34.0258 27.6778 33.6723 27.5011 33.2747C27.3244 32.8771 27.2361 32.3691 27.2361 31.7948C27.2361 31.2426 27.3465 30.7566 27.5453 30.3148C27.7662 29.8731 28.0534 29.4755 28.4289 29.1662C28.8044 28.8349 29.2461 28.5919 29.7763 28.4152C30.3064 28.2385 30.8586 28.1501 31.4771 28.1501C32.3827 28.1501 33.2221 28.2827 33.951 28.5477C34.68 28.8128 35.3647 29.2104 36.0053 29.7184L34.8346 31.3751C34.2603 30.9554 33.7081 30.6462 33.1338 30.4253C32.5815 30.2044 32.0072 30.094 31.4329 30.094C30.7923 30.094 30.2843 30.2486 29.9309 30.5357C29.5775 30.8229 29.4008 31.1763 29.4008 31.596C29.3566 31.7948 29.4008 32.0157 29.4891 32.1924Z" fill="#1CCBFF"/>
<path d="M41.1074 35.4811V40.7382H38.9427V28.2581H41.1074V33.449H47.0935V28.2581H49.2582V40.7382H47.0935V35.4811H41.1074Z" fill="#1CCBFF"/>
<path d="M61.0542 29.1196C61.7831 29.6939 62.1586 30.467 62.1586 31.461C62.1586 31.8365 62.1144 32.1899 62.004 32.4771C61.8935 32.7642 61.7831 33.0293 61.6064 33.2502C61.4518 33.4711 61.253 33.6699 61.0321 33.8245C60.8112 34.0012 60.5903 34.1337 60.3694 34.2442C60.7449 34.3767 61.0763 34.5313 61.3634 34.708C61.6727 34.8847 61.9156 35.0835 62.1365 35.3265C62.3574 35.5695 62.512 35.8345 62.6446 36.1659C62.755 36.4972 62.8213 36.8727 62.8213 37.2924C62.8213 37.8446 62.7108 38.3527 62.4899 38.7723C62.2691 39.192 61.9598 39.5675 61.5622 39.8547C61.1646 40.1418 60.6787 40.3627 60.1044 40.5173C59.53 40.672 58.9116 40.7382 58.2268 40.7382H52.4617V28.2581H58.0501C59.3313 28.2802 60.3252 28.5453 61.0542 29.1196ZM59.3533 33.1176C59.773 32.8305 59.9939 32.4108 59.9939 31.8144C59.9939 31.3064 59.7951 30.9088 59.4417 30.6216C59.0662 30.3345 58.5361 30.2019 57.8071 30.2019H54.6705V33.5373H57.6525C58.3593 33.5373 58.9116 33.4048 59.3533 33.1176ZM60.0381 38.3747C60.4578 38.0876 60.6787 37.6458 60.6787 37.0936C60.6787 36.5635 60.4578 36.1438 60.0381 35.8566C59.6184 35.5695 58.9778 35.4149 58.1164 35.4149H54.6484V38.8386H58.271C59.022 38.8165 59.6184 38.6619 60.0381 38.3747Z" fill="#1CCBFF"/>
<path d="M77.3762 36.9883C77.0449 37.7835 76.6031 38.4682 76.0288 39.0425C75.4545 39.6389 74.7477 40.1028 73.9525 40.4341C73.1573 40.7875 72.2737 40.9421 71.3239 40.9421C70.352 40.9421 69.4905 40.7654 68.6953 40.4341C67.9002 40.1028 67.2154 39.6389 66.6411 39.0425C66.0668 38.4461 65.625 37.7835 65.2937 36.9883C64.9624 36.1931 64.8077 35.3758 64.8077 34.4922C64.8077 33.6087 64.9624 32.7693 65.2937 31.9962C65.625 31.201 66.0668 30.5163 66.6411 29.942C67.2154 29.3456 67.9222 28.8817 68.7174 28.5504C69.5126 28.197 70.3962 28.0424 71.346 28.0424C72.3179 28.0424 73.1794 28.2191 73.9746 28.5504C74.7697 28.8817 75.4545 29.3456 76.0288 29.942C76.6031 30.5163 77.0449 31.201 77.3762 31.9962C77.7075 32.7914 77.8622 33.6087 77.8622 34.4922C77.8401 35.3758 77.6855 36.2152 77.3762 36.9883ZM75.2336 32.8135C75.0348 32.2834 74.7256 31.7974 74.3501 31.3998C73.9745 31.0022 73.5328 30.6709 73.0027 30.4279C72.4725 30.185 71.8982 30.0745 71.2797 30.0745C70.6612 30.0745 70.0869 30.185 69.5789 30.4279C69.0709 30.6709 68.6291 30.9801 68.2536 31.3777C67.8781 31.7753 67.5909 32.2392 67.3921 32.7914C67.1933 33.3436 67.0829 33.8959 67.0829 34.5143C67.0829 35.1328 67.1933 35.685 67.3921 36.2372C67.5909 36.7674 67.9002 37.2533 68.2757 37.6509C68.6512 38.0485 69.093 38.3798 69.6231 38.6228C70.1532 38.8658 70.7275 38.9762 71.3239 38.9762C71.9424 38.9762 72.5167 38.8658 73.0247 38.6228C73.5328 38.3798 73.9745 38.0706 74.3501 37.673C74.7256 37.2754 75.0127 36.8116 75.2115 36.2593C75.4103 35.7292 75.5208 35.1549 75.5208 34.5364C75.5429 33.9179 75.4545 33.3436 75.2336 32.8135Z" fill="#1CCBFF"/>
<path d="M91.6908 40.7188H89.3715L88.1124 37.7147H82.2147L80.9336 40.7188H78.6805L84.1806 28.1503H86.2128L91.6908 40.7188ZM85.1304 30.7789L82.9878 35.7709H87.2951L85.1304 30.7789Z" fill="#1CCBFF"/>
<path d="M101.83 40.7382L98.76 36.3868H95.9989V40.7382H93.8342V28.2581H99.4006C100.107 28.2581 100.748 28.3465 101.344 28.5232C101.919 28.6999 102.405 28.965 102.802 29.3184C103.2 29.6497 103.509 30.0694 103.73 30.5553C103.951 31.0413 104.061 31.5935 104.061 32.212C104.061 32.7421 103.995 33.206 103.84 33.6036C103.686 34.0233 103.487 34.3767 103.222 34.6859C102.957 34.9952 102.648 35.2602 102.294 35.4811C101.941 35.702 101.521 35.8787 101.079 35.9892L104.459 40.7161H101.83V40.7382ZM101.124 30.7762C100.682 30.4228 100.041 30.2461 99.2018 30.2461H95.9989V34.443H99.2239C100.019 34.443 100.638 34.2442 101.101 33.8686C101.565 33.4931 101.808 32.963 101.808 32.3224C101.786 31.6598 101.565 31.1297 101.124 30.7762Z" fill="#1CCBFF"/>
<path d="M117.514 36.9927C117.183 37.7658 116.741 38.4285 116.145 38.9807C115.548 39.5329 114.864 39.9747 114.046 40.306C113.229 40.6373 112.345 40.792 111.373 40.792H106.713V28.3118H111.373C112.345 28.3118 113.251 28.4665 114.046 28.7757C114.864 29.0849 115.57 29.5267 116.145 30.0789C116.741 30.6311 117.183 31.2938 117.514 32.0669C117.845 32.8179 118 33.6573 118 34.5188C118 35.4023 117.845 36.2196 117.514 36.9927ZM115.394 32.84C115.195 32.3099 114.886 31.8681 114.51 31.4926C114.135 31.1171 113.671 30.8079 113.141 30.587C112.61 30.3661 112.014 30.2556 111.351 30.2556H108.877V38.7819H111.351C112.014 38.7819 112.61 38.6714 113.141 38.4726C113.671 38.2738 114.135 37.9646 114.51 37.5891C114.886 37.2136 115.173 36.7718 115.394 36.2417C115.592 35.7116 115.703 35.1593 115.703 34.5408C115.703 33.9445 115.592 33.3701 115.394 32.84Z" fill="#1CCBFF"/>
</svg>
