<svg width="44" height="49" viewBox="0 0 44 49" fill="none" xmlns="http://www.w3.org/2000/svg">
<path d="M0.265625 24.9113L9.36278 24.0167C9.61478 24.0167 9.82898 24.3191 9.99278 24.4955L12.412 27.3305L15.184 24.8609C15.373 24.6845 15.6376 24.6215 15.8896 24.6593C16.1416 24.6971 16.3558 24.8609 16.4818 25.0751L17.7669 27.3809L20.4003 21.1817C20.5389 20.8667 20.8665 20.6651 21.2193 20.6777C21.5721 20.7029 21.8745 20.9297 21.9753 21.2699L26.7255 31.7657L29.9133 18.6995C30.0015 18.3341 30.3291 18.0695 30.7071 18.0569H30.7323C31.0977 18.0569 31.4379 18.2963 31.5387 18.6617L34.1343 27.3809L37.0575 23.1851C37.1835 22.9961 37.3851 22.8701 37.5993 22.8323C37.8261 22.7945 44 24.1931 44 24.1931L37.9521 24.8357L34.5123 29.7875C34.3233 30.0521 34.0083 30.1907 33.6933 30.1403C33.3783 30.0899 33.1137 29.8631 33.0255 29.5481L30.8205 22.1141L27.6201 35.0795C27.5319 35.4449 27.2043 35.7095 26.8263 35.7221H26.8011C26.4357 35.7221 26.1081 35.4827 25.9947 35.1299L21.0051 23.9033L18.5859 29.6111C18.4599 29.9009 18.1701 30.1025 17.8551 30.1151C17.5401 30.1277 17.2377 29.9639 17.0865 29.6867L15.5116 26.8139L12.8908 29.1575C12.727 29.3087 12.5002 29.3843 12.2734 29.3717C12.0466 29.3591 11.8324 29.2457 11.6938 29.0819L8.46819 24.9113H0.265625Z" fill="#1CCBFF"/>
<path d="M40.3083 28.6082H37.5868L39.4137 37.0502L25.7554 45.2905L12.6515 36.7604L13.6595 32.0102H10.9379L9.66528 37.9952L25.705 48.4279L42.4125 38.3606L40.3083 28.6082Z" fill="black"/>
<path d="M37.6236 15.8885L36.4392 14.2757L36.4644 15.4601L36.4392 14.2757L26.0316 0L14.4397 15.8003L13.0663 22.2641H15.7753L16.9219 16.9091L26.019 4.49818L35.1414 16.9973L35.6832 19.5425H38.3922L37.6236 15.8885Z" fill="black"/>
</svg>
