<svg id="Layer_1" data-name="Layer 1" xmlns="http://www.w3.org/2000/svg" viewBox="0 0 1280 640"><defs><style>.cls-1{fill:#1ccbff;}</style></defs><path class="cls-1" d="M44.49,324.37a1,1,0,0,1-.19-2L85,314.8a6.43,6.43,0,0,1,5.92,1.76h0a25.77,25.77,0,0,1,4.39,5.88L109.81,349a2.1,2.1,0,0,0,3.23.56l29-25.73a9.47,9.47,0,0,1,14.5,2.38l13.78,24.64a.58.58,0,0,0,1-.06l28.94-67.91a9.65,9.65,0,0,1,9.15-5.61,9.36,9.36,0,0,1,8.44,6.59l53.05,116.8,35.59-145.4a9.47,9.47,0,0,1,8.87-7.15h.28a9.34,9.34,0,0,1,9,6.73l28.37,95a1.07,1.07,0,0,0,1.89.33L386.28,308a9.26,9.26,0,0,1,6.05-3.93c1.93-.32,42.35,5.85,61.51,10.13,1.84.41,1.87,3.08,0,3.28l-56.28,5.95a2.83,2.83,0,0,0-2,1.2l-37.67,54a9.46,9.46,0,0,1-9.14,3.93,9.24,9.24,0,0,1-7.46-6.6L317.8,297.15a1.11,1.11,0,0,0-2.15.05L280.9,437.52a9.46,9.46,0,0,1-8.87,7.15h-.28a9.48,9.48,0,0,1-9-6.59L208,315.26a1,1,0,0,0-1.85,0L180,376.67a9.37,9.37,0,0,1-16.74.84l-16.33-29.68a2.08,2.08,0,0,0-3.21-.55l-27.31,24.34a9.48,9.48,0,0,1-6.9,2.38,9.25,9.25,0,0,1-4.87-1.75,8,8,0,0,1-2.24-2.6L77.24,325.11a1.47,1.47,0,0,0-1.28-.74Z"/><path d="M410.61,365.51h0a14.84,14.84,0,0,0-14.51,18l15.47,71.23a6.75,6.75,0,0,1-3.12,7.21l-145,87.15a6.39,6.39,0,0,1-6.77-.11L117.64,458.75a6.74,6.74,0,0,1-2.93-7.06l6.46-30.36a14.87,14.87,0,0,0-14.53-18h0A14.87,14.87,0,0,0,92.1,415.13L81.37,465.42a6.74,6.74,0,0,0,2.92,7.07l171.87,111.4a6.39,6.39,0,0,0,6.77.12l179-107.49a6.75,6.75,0,0,0,3.12-7.21l-19.94-92.1A14.84,14.84,0,0,0,410.61,365.51Z"/><path d="M379.38,206,272.4,59.78a11.49,11.49,0,0,0-18.52,0l-118,160.35a16.53,16.53,0,0,0-2.87,6.38L122.19,277a14.81,14.81,0,0,0,14.48,17.89h0a14.79,14.79,0,0,0,14.47-11.69l9.54-44.42a16.68,16.68,0,0,1,2.86-6.35L261.32,99.52a2.1,2.1,0,0,1,3.39,0l98.08,133.91a16.67,16.67,0,0,1,2.84,6.34l2.8,13.13a14.81,14.81,0,0,0,14.49,11.72h0a14.82,14.82,0,0,0,14.5-17.87l-4.07-19.27a16.57,16.57,0,0,0-2.88-6.42Z"/><path d="M575.11,243.32H529.23l-9.05,21.23H502.62l41.29-91.75h16.78l41.42,91.75H584.28ZM569.47,230l-17.3-40.11L535,230Z"/><path d="M695.3,172.8v91.75h-14l-50.6-62.13v62.13H613.77V172.8h14l50.6,62.13V172.8Z"/><path d="M738.56,187.21H708.15V172.8H786v14.41H755.6v77.34h-17Z"/><path d="M867.67,250.26v14.29H798.86V172.8h67v14.28H815.9v23.86h44.3v14H815.9v25.29Z"/><path d="M886.68,172.8h17v77.33h48v14.42h-65Z"/><path d="M981.06,259.77a45.15,45.15,0,0,1-17.7-16.91,48.76,48.76,0,0,1,0-48.37,45.08,45.08,0,0,1,17.7-16.91,55.58,55.58,0,0,1,50.59,0,45.26,45.26,0,0,1,17.7,16.84,49,49,0,0,1,0,48.5,45.28,45.28,0,0,1-17.7,16.85,55.58,55.58,0,0,1-50.59,0Zm41.81-13a29.94,29.94,0,0,0,11.54-11.53,34.92,34.92,0,0,0,0-33.17,29.94,29.94,0,0,0-11.54-11.53,35.09,35.09,0,0,0-33,0,29.88,29.88,0,0,0-11.54,11.53,34.92,34.92,0,0,0,0,33.17,29.88,29.88,0,0,0,11.54,11.53,35.09,35.09,0,0,0,33,0Z"/><path d="M1132.39,176.73A30.21,30.21,0,0,1,1146,188a34.43,34.43,0,0,1,0,34.8,30,30,0,0,1-13.56,11.34,50.86,50.86,0,0,1-20.78,3.93H1090.9v26.48h-17V172.8h37.75A50.86,50.86,0,0,1,1132.39,176.73Zm-4.66,42.21q5.77-4.73,5.77-13.51t-5.77-13.5q-5.76-4.71-16.91-4.72H1090.9v36.44h19.92Q1122,223.65,1127.73,218.94Z"/><path d="M1236.53,250.26v14.29h-68.82V172.8h67v14.28h-49.94v23.86h44.31v14h-44.31v25.29Z"/><path class="cls-1" d="M556,323.08H509V300.81H629.25v22.27h-47V442.54H556Z"/><path class="cls-1" d="M680.68,435.15A69.84,69.84,0,0,1,653.34,409a75.29,75.29,0,0,1,0-74.71,69.77,69.77,0,0,1,27.34-26.12q17.4-9.42,39.07-9.41t39.08,9.41a70,70,0,0,1,27.33,26q9.92,16.61,9.92,37.45t-9.92,37.46a70,70,0,0,1-27.33,26q-17.42,9.41-39.08,9.41T680.68,435.15Zm64.58-20a46.14,46.14,0,0,0,17.82-17.81,53.87,53.87,0,0,0,0-51.23,46.14,46.14,0,0,0-17.82-17.81,54.19,54.19,0,0,0-51,0,46.05,46.05,0,0,0-17.81,17.81,53.87,53.87,0,0,0,0,51.23,46.05,46.05,0,0,0,17.81,17.81,54.19,54.19,0,0,0,51,0Z"/><path class="cls-1" d="M857.63,435.15A69.74,69.74,0,0,1,830.3,409a75.29,75.29,0,0,1,0-74.71,69.67,69.67,0,0,1,27.33-26.12q17.42-9.42,39.07-9.41t39.08,9.41a69.92,69.92,0,0,1,27.33,26Q973,350.83,973,371.67t-9.92,37.46a69.92,69.92,0,0,1-27.33,26q-17.41,9.41-39.08,9.41T857.63,435.15Zm64.59-20A46.19,46.19,0,0,0,940,397.29a53.87,53.87,0,0,0,0-51.23,46.19,46.19,0,0,0-17.81-17.81,54.21,54.21,0,0,0-51,0,46.12,46.12,0,0,0-17.81,17.81,53.87,53.87,0,0,0,0,51.23,46.12,46.12,0,0,0,17.81,17.81,54.21,54.21,0,0,0,51,0Z"/><path class="cls-1" d="M1007.45,300.81h26.32V420.26h74.1v22.28H1007.45Z"/><path class="cls-1" d="M1146.44,439.9q-15.29-4.65-24.19-12.35l9.11-20.45a71.61,71.61,0,0,0,21.36,11.24,77.45,77.45,0,0,0,25.41,4.35q15.8,0,23.59-5.06t7.79-13.36a12.93,12.93,0,0,0-4.35-10,30.72,30.72,0,0,0-11-6.18q-6.67-2.22-18.22-5.06a212.33,212.33,0,0,1-26.22-7.69,43.18,43.18,0,0,1-17.21-12.05q-7.18-8.2-7.18-22.17a37.84,37.84,0,0,1,6.37-21.36q6.39-9.62,19.24-15.28t31.48-5.67a101.67,101.67,0,0,1,25.51,3.24,70.42,70.42,0,0,1,21.66,9.31l-8.3,20.45a81.63,81.63,0,0,0-19.43-8.3,72.74,72.74,0,0,0-19.64-2.84q-15.6,0-23.18,5.27t-7.6,14a12.62,12.62,0,0,0,4.36,9.92,31.44,31.44,0,0,0,11,6.07q6.69,2.24,18.22,5.06a190.6,190.6,0,0,1,25.92,7.6,44.31,44.31,0,0,1,17.31,12q7.18,8.1,7.19,21.87a37.37,37.37,0,0,1-6.38,21.26q-6.37,9.51-19.34,15.18t-31.58,5.67A108,108,0,0,1,1146.44,439.9Z"/></svg>