<svg width="90" height="161" viewBox="0 0 90 161" fill="none" xmlns="http://www.w3.org/2000/svg">
<rect width="90" height="100" fill="white"/>
<path fill-rule="evenodd" clip-rule="evenodd" d="M44.963 0C51.4296 0 57.0074 6.64429 60.6815 17.4408C59.2 17.8512 57.6815 18.306 56.1519 18.8163C53.1 9.88325 48.9111 4.62734 44.963 4.62734C40.513 4.62734 35.7667 11.2938 32.6759 22.3732C33.8833 22.7596 35.1019 23.1681 36.3463 23.6229C39.2774 24.6971 42.162 25.8937 44.9926 27.2094L45.4981 26.9746C47.5683 26.0324 49.6661 25.152 51.7889 24.3347C57.3556 22.2087 62.7333 20.6798 67.6556 19.8737C78.2574 18.1285 85.7111 19.9329 88.637 24.9577C91.5704 29.9825 89.4259 37.2739 82.6 45.4859C82.2037 45.9554 81.8037 46.4306 81.3833 46.9001C80.3344 45.749 79.2493 44.6312 78.1296 43.5484C84.1555 36.6342 86.5259 30.5889 84.5907 27.2723C82.7574 24.1313 76.7204 23.0739 68.4241 24.4345C66.5719 24.7457 64.7343 25.138 62.9167 25.6103C63.1852 26.8397 63.4389 28.095 63.6611 29.3946C64.1722 32.3027 64.5685 35.3808 64.85 38.5864C66.29 39.5836 67.7064 40.6143 69.0981 41.6775C74.4556 45.7817 79.0574 50.0873 82.5982 54.3449C89.4259 62.5569 91.5704 69.8483 88.637 74.8731C86.4389 78.6482 81.6833 80.6041 74.9574 80.6041C72.7333 80.6041 70.2944 80.3934 67.6556 79.9571C66.9741 79.8461 66.2796 79.7186 65.5778 79.5799C65.9981 78.1453 66.387 76.6442 66.7407 75.0912C67.3074 75.2022 67.8704 75.302 68.4241 75.3963C76.7148 76.7569 82.7574 75.6995 84.5907 72.5585C86.813 68.7446 83.3407 61.3238 75.1704 53.1192C74.3421 53.8668 73.5006 54.5996 72.6463 55.3173C72.5167 55.4227 72.3852 55.5355 72.2574 55.6335C69.8648 57.6119 67.3898 59.4887 64.8389 61.2591C64.7176 62.6878 64.5694 64.114 64.3944 65.5371C61.8463 85.873 54.337 99.8308 44.963 99.8308C38.5111 99.8308 32.9389 93.2068 29.2648 82.4362C30.7883 82.0236 32.2989 81.5649 33.7944 81.0607C36.8463 89.966 41.0222 95.2034 44.963 95.2034C49.413 95.2034 54.1722 88.5148 57.2685 77.4058C56.0343 77.0196 54.8093 76.6047 53.5944 76.1616C50.6775 75.1037 47.8065 73.9238 44.9889 72.625L44.8037 72.7119C43.1667 73.4644 41.5556 74.165 39.9667 74.8139C39.7185 74.9119 39.4796 75.0117 39.2389 75.0986C30.087 78.748 21.7296 80.6374 15.0833 80.6374C8.46296 80.6374 3.5537 78.7609 1.28333 74.8731C-1.96481 69.3066 1.10926 61.1556 8.79815 52.5591L12.0648 55.9718C5.84444 63.0191 3.37407 69.1938 5.33704 72.5585C7.55926 76.3706 15.7648 77.1063 27.0037 74.2186C26.7318 72.9655 26.4861 71.7069 26.2667 70.4436C25.7428 67.4037 25.3474 64.3432 25.0815 61.2702C23.6459 60.2798 22.232 59.2585 20.8407 58.2069C7.81482 48.2885 0 37.7564 0 29.916C0 28.1042 0.42037 26.4404 1.28333 24.9577C4.51481 19.4245 13.0981 17.9621 24.3685 20.1972C23.9426 21.6522 23.5463 23.1737 23.1926 24.7451C13.9278 22.9333 7.29444 23.9058 5.33704 27.2723C3.11481 31.0807 6.57593 38.4866 14.7222 46.6783C15.7667 45.741 16.8519 44.8111 17.9889 43.8867C20.2834 42.0159 22.6513 40.2366 25.087 38.5532C25.2167 37.0982 25.3593 35.6599 25.537 34.266C28.0889 13.9486 35.5981 0 44.963 0ZM59.7593 64.6127C58.6275 65.3233 57.4854 66.0172 56.3333 66.6944C54.5838 67.7169 52.8105 68.6982 51.0148 69.6375C50.813 69.7447 50.6111 69.8427 50.4093 69.95C53.0211 71.0464 55.6784 72.0314 58.3741 72.9024C58.6481 71.636 58.9019 70.3289 59.1333 68.9757C59.3704 67.5707 59.5722 66.1046 59.7593 64.6127ZM30.1519 64.6053C30.3481 66.173 30.5741 67.6964 30.8278 69.1679C31.05 70.4547 31.2963 71.6914 31.5593 72.8968C32.3148 72.6565 33.0778 72.4014 33.8556 72.1296C34.0889 72.0501 34.3278 71.9632 34.563 71.8782C36.2153 71.2916 37.8499 70.6566 39.4648 69.974L39.5111 69.9555C37.9159 69.127 36.3372 68.2672 34.7759 67.3765C34.6963 67.3303 34.6093 67.2841 34.5296 67.2305C33.054 66.383 31.5945 65.5078 30.1519 64.6053ZM44.9667 32.3359C42.2998 33.6151 39.6807 34.9915 37.1148 36.4623C34.5503 37.927 32.0382 39.4815 29.5833 41.1229C29.3692 44.0488 29.263 46.9817 29.2648 49.9154C29.2648 52.9584 29.3778 55.8868 29.5796 58.7042C30.9444 59.6175 32.3481 60.5233 33.8148 61.4126C37.4278 63.625 41.1498 65.655 44.9667 67.4949L45.4704 67.2564C47.2517 66.3874 49.0115 65.4751 50.7481 64.5203C54.0317 62.7276 57.2331 60.7888 60.3426 58.7097C60.5564 55.7832 60.6626 52.8497 60.6611 49.9154C60.6611 46.8743 60.55 43.944 60.3463 41.1284C57.8923 39.4829 55.3796 37.9265 52.813 36.4623C50.2463 34.9952 47.6286 33.6189 44.9648 32.3359H44.9667ZM44.963 43.9644C48.2833 43.9644 50.9759 46.6284 50.9759 49.9154C50.9759 53.2024 48.2833 55.8664 44.963 55.8664C41.6426 55.8664 38.9519 53.2024 38.9519 49.9154C38.9519 46.6284 41.6426 43.9644 44.963 43.9644ZM65.2333 44.5837C65.3018 46.3307 65.337 48.1092 65.337 49.9154C65.337 50.3517 65.337 50.788 65.3315 51.2243C65.3167 52.5923 65.2759 53.9345 65.2222 55.2674C66.4259 54.3653 67.5815 53.4631 68.6852 52.5591L69.0926 52.23C70.0259 51.4535 70.9204 50.6845 71.7796 49.9154C69.6773 48.0427 67.4931 46.2637 65.2333 44.5837ZM24.7037 44.5707C23.6222 45.3805 22.5759 46.1902 21.5759 47C20.3722 47.9687 19.2296 48.9411 18.1426 49.9172C18.9315 50.6216 19.7481 51.3297 20.6019 52.0377C21.8907 53.11 23.263 54.1804 24.6944 55.2489C24.6244 53.472 24.5892 51.6938 24.5889 49.9154C24.5889 49.4791 24.5889 49.0428 24.6019 48.612C24.6111 47.2477 24.6519 45.9037 24.7037 44.5707ZM58.3667 26.9303C55.8182 27.7492 53.3055 28.675 50.8352 29.7052L50.4278 29.8771C51.9926 30.6924 53.5685 31.5521 55.15 32.4543C55.2296 32.5005 55.3167 32.5467 55.3981 32.6003C56.8907 33.4507 58.3426 34.3344 59.7741 35.231C59.5841 33.7039 59.3588 32.1814 59.0981 30.6647C58.8795 29.4151 58.6356 28.17 58.3667 26.9303ZM31.5556 26.9303C30.9659 29.6672 30.5018 32.4296 30.1648 35.2088C31.5907 34.3178 33.0574 33.4378 34.563 32.5744L34.7759 32.4543C36.3395 31.5639 37.9207 30.7046 39.5185 29.8771C38.1236 29.2926 36.7158 28.7391 35.2963 28.217C34.0598 27.7584 32.8126 27.3294 31.5556 26.9303Z" fill="url(#paint0_linear)"/>
<path d="M15.6131 132.1C15.3065 132.1 15.0598 132.007 14.8731 131.82C14.6865 131.633 14.5931 131.38 14.5931 131.06V118.9C14.5931 118.593 14.6798 118.353 14.8531 118.18C15.0398 117.993 15.2931 117.9 15.6131 117.9H20.4331C21.9265 117.9 23.0865 118.267 23.9131 119C24.7398 119.733 25.1531 120.773 25.1531 122.12C25.1531 123.453 24.7398 124.493 23.9131 125.24C23.0865 125.987 21.9265 126.36 20.4331 126.36H16.6531V131.06C16.6531 131.38 16.5598 131.633 16.3731 131.82C16.1998 132.007 15.9465 132.1 15.6131 132.1ZM20.2131 124.7C22.1865 124.7 23.1731 123.84 23.1731 122.12C23.1731 120.413 22.1865 119.56 20.2131 119.56H16.6531V124.7H20.2131ZM32.3247 122.04C32.9647 122 33.2847 122.273 33.2847 122.86C33.2847 123.153 33.2114 123.373 33.0647 123.52C32.918 123.667 32.6647 123.753 32.3047 123.78L31.7047 123.84C30.8647 123.92 30.238 124.213 29.8247 124.72C29.4247 125.227 29.2247 125.84 29.2247 126.56V131.14C29.2247 131.46 29.1314 131.7 28.9447 131.86C28.758 132.02 28.518 132.1 28.2247 132.1C27.9314 132.1 27.6847 132.02 27.4847 131.86C27.298 131.7 27.2047 131.46 27.2047 131.14V123C27.2047 122.693 27.298 122.46 27.4847 122.3C27.6847 122.127 27.9314 122.04 28.2247 122.04C28.4914 122.04 28.7114 122.127 28.8847 122.3C29.0714 122.46 29.1647 122.687 29.1647 122.98V123.94C29.4314 123.353 29.818 122.907 30.3247 122.6C30.8314 122.293 31.4047 122.113 32.0447 122.06L32.3247 122.04ZM38.5736 132.14C37.6136 132.14 36.7669 131.933 36.0336 131.52C35.3136 131.107 34.7536 130.52 34.3536 129.76C33.9669 128.987 33.7736 128.093 33.7736 127.08C33.7736 126.053 33.9669 125.16 34.3536 124.4C34.7536 123.627 35.3136 123.033 36.0336 122.62C36.7669 122.207 37.6136 122 38.5736 122C39.5336 122 40.3736 122.207 41.0936 122.62C41.8269 123.033 42.3869 123.627 42.7736 124.4C43.1736 125.16 43.3736 126.053 43.3736 127.08C43.3736 128.093 43.1736 128.987 42.7736 129.76C42.3869 130.52 41.8269 131.107 41.0936 131.52C40.3736 131.933 39.5336 132.14 38.5736 132.14ZM38.5736 130.54C39.4669 130.54 40.1469 130.247 40.6136 129.66C41.0936 129.073 41.3336 128.213 41.3336 127.08C41.3336 125.96 41.0936 125.107 40.6136 124.52C40.1336 123.92 39.4536 123.62 38.5736 123.62C37.6936 123.62 37.0136 123.92 36.5336 124.52C36.0536 125.107 35.8136 125.96 35.8136 127.08C35.8136 128.213 36.0469 129.073 36.5136 129.66C36.9936 130.247 37.6803 130.54 38.5736 130.54ZM50.3636 130.56C50.6569 130.587 50.8636 130.667 50.9836 130.8C51.1169 130.92 51.1836 131.093 51.1836 131.32C51.1836 131.587 51.0769 131.793 50.8636 131.94C50.6636 132.073 50.3636 132.127 49.9636 132.1L49.4236 132.06C48.3436 131.98 47.5369 131.653 47.0036 131.08C46.4703 130.493 46.2036 129.633 46.2036 128.5V123.8H45.0036C44.4169 123.8 44.1236 123.54 44.1236 123.02C44.1236 122.78 44.1969 122.593 44.3436 122.46C44.5036 122.313 44.7236 122.24 45.0036 122.24H46.2036V120.18C46.2036 119.873 46.2903 119.633 46.4636 119.46C46.6503 119.287 46.8969 119.2 47.2036 119.2C47.5103 119.2 47.7569 119.287 47.9436 119.46C48.1303 119.633 48.2236 119.873 48.2236 120.18V122.24H50.2036C50.4836 122.24 50.6969 122.313 50.8436 122.46C51.0036 122.593 51.0836 122.78 51.0836 123.02C51.0836 123.273 51.0036 123.467 50.8436 123.6C50.6969 123.733 50.4836 123.8 50.2036 123.8H48.2236V128.64C48.2236 129.267 48.3503 129.727 48.6036 130.02C48.8703 130.313 49.2703 130.48 49.8036 130.52L50.3636 130.56ZM56.8744 132.14C55.9144 132.14 55.0677 131.933 54.3344 131.52C53.6144 131.107 53.0544 130.52 52.6544 129.76C52.2677 128.987 52.0744 128.093 52.0744 127.08C52.0744 126.053 52.2677 125.16 52.6544 124.4C53.0544 123.627 53.6144 123.033 54.3344 122.62C55.0677 122.207 55.9144 122 56.8744 122C57.8344 122 58.6744 122.207 59.3944 122.62C60.1277 123.033 60.6877 123.627 61.0744 124.4C61.4744 125.16 61.6744 126.053 61.6744 127.08C61.6744 128.093 61.4744 128.987 61.0744 129.76C60.6877 130.52 60.1277 131.107 59.3944 131.52C58.6744 131.933 57.8344 132.14 56.8744 132.14ZM56.8744 130.54C57.7677 130.54 58.4477 130.247 58.9144 129.66C59.3944 129.073 59.6344 128.213 59.6344 127.08C59.6344 125.96 59.3944 125.107 58.9144 124.52C58.4344 123.92 57.7544 123.62 56.8744 123.62C55.9944 123.62 55.3144 123.92 54.8344 124.52C54.3544 125.107 54.1144 125.96 54.1144 127.08C54.1144 128.213 54.3477 129.073 54.8144 129.66C55.2944 130.247 55.981 130.54 56.8744 130.54ZM69.1834 122C71.5168 122 72.6834 123.313 72.6834 125.94V131.14C72.6834 131.447 72.5901 131.687 72.4034 131.86C72.2301 132.02 71.9834 132.1 71.6634 132.1C71.3568 132.1 71.1101 132.013 70.9234 131.84C70.7501 131.667 70.6634 131.433 70.6634 131.14V126.04C70.6634 125.213 70.4968 124.607 70.1634 124.22C69.8434 123.833 69.3368 123.64 68.6434 123.64C67.8301 123.64 67.1768 123.893 66.6834 124.4C66.1901 124.907 65.9434 125.587 65.9434 126.44V131.14C65.9434 131.433 65.8501 131.667 65.6634 131.84C65.4901 132.013 65.2501 132.1 64.9434 132.1C64.6368 132.1 64.3901 132.013 64.2034 131.84C64.0168 131.667 63.9234 131.433 63.9234 131.14V123C63.9234 122.72 64.0168 122.493 64.2034 122.32C64.4034 122.133 64.6501 122.04 64.9434 122.04C65.2368 122.04 65.4701 122.127 65.6434 122.3C65.8168 122.473 65.9034 122.7 65.9034 122.98V123.8C66.2234 123.213 66.6701 122.767 67.2434 122.46C67.8168 122.153 68.4634 122 69.1834 122ZM16.1318 156.1C15.8251 156.1 15.5718 156.007 15.3718 155.82C15.1851 155.62 15.0918 155.367 15.0918 155.06V143.62H11.0918C10.4518 143.62 10.1318 143.333 10.1318 142.76C10.1318 142.48 10.2118 142.267 10.3718 142.12C10.5451 141.973 10.7851 141.9 11.0918 141.9H21.1718C21.4785 141.9 21.7118 141.973 21.8718 142.12C22.0451 142.267 22.1318 142.48 22.1318 142.76C22.1318 143.333 21.8118 143.62 21.1718 143.62H17.1718V155.06C17.1718 155.367 17.0785 155.62 16.8918 155.82C16.7051 156.007 16.4518 156.1 16.1318 156.1ZM29.6982 153.54C29.8849 153.54 30.0382 153.613 30.1582 153.76C30.2782 153.907 30.3382 154.093 30.3382 154.32C30.3382 154.707 30.0982 155.033 29.6182 155.3C29.1515 155.567 28.6382 155.773 28.0782 155.92C27.5315 156.067 27.0049 156.14 26.4982 156.14C24.9515 156.14 23.7315 155.693 22.8382 154.8C21.9449 153.893 21.4982 152.66 21.4982 151.1C21.4982 150.1 21.6915 149.213 22.0782 148.44C22.4782 147.667 23.0315 147.067 23.7382 146.64C24.4582 146.213 25.2715 146 26.1782 146C27.4849 146 28.5182 146.42 29.2782 147.26C30.0382 148.1 30.4182 149.233 30.4182 150.66C30.4182 151.193 30.1782 151.46 29.6982 151.46H23.5182C23.6515 153.527 24.6449 154.56 26.4982 154.56C26.9915 154.56 27.4182 154.493 27.7782 154.36C28.1382 154.227 28.5182 154.053 28.9182 153.84C28.9582 153.813 29.0649 153.76 29.2382 153.68C29.4249 153.587 29.5782 153.54 29.6982 153.54ZM26.2182 147.48C25.4449 147.48 24.8249 147.727 24.3582 148.22C23.8915 148.713 23.6115 149.407 23.5182 150.3H28.6782C28.6382 149.393 28.4049 148.7 27.9782 148.22C27.5649 147.727 26.9782 147.48 26.2182 147.48ZM36.0441 156.14C34.6841 156.14 33.5708 155.86 32.7041 155.3C32.4641 155.153 32.2908 155 32.1841 154.84C32.0908 154.68 32.0441 154.5 32.0441 154.3C32.0441 154.087 32.1041 153.907 32.2241 153.76C32.3441 153.613 32.4975 153.54 32.6841 153.54C32.8575 153.54 33.1308 153.647 33.5041 153.86C33.9041 154.073 34.2908 154.247 34.6641 154.38C35.0508 154.513 35.5308 154.58 36.1041 154.58C36.7441 154.58 37.2441 154.467 37.6041 154.24C37.9641 154.013 38.1441 153.693 38.1441 153.28C38.1441 153.013 38.0708 152.8 37.9241 152.64C37.7908 152.48 37.5508 152.34 37.2041 152.22C36.8575 152.087 36.3441 151.947 35.6641 151.8C34.4908 151.547 33.6441 151.207 33.1241 150.78C32.6175 150.34 32.3641 149.747 32.3641 149C32.3641 148.427 32.5308 147.913 32.8641 147.46C33.1975 146.993 33.6575 146.633 34.2441 146.38C34.8308 146.127 35.4975 146 36.2441 146C36.7775 146 37.2975 146.073 37.8041 146.22C38.3108 146.353 38.7575 146.553 39.1441 146.82C39.5841 147.113 39.8041 147.453 39.8041 147.84C39.8041 148.053 39.7375 148.233 39.6041 148.38C39.4841 148.527 39.3375 148.6 39.1641 148.6C39.0441 148.6 38.9241 148.573 38.8041 148.52C38.6841 148.467 38.5241 148.38 38.3241 148.26C37.9641 148.047 37.6241 147.88 37.3041 147.76C36.9975 147.64 36.6108 147.58 36.1441 147.58C35.5841 147.58 35.1308 147.7 34.7841 147.94C34.4508 148.18 34.2841 148.507 34.2841 148.92C34.2841 149.293 34.4375 149.587 34.7441 149.8C35.0641 150 35.6575 150.193 36.5241 150.38C37.4175 150.567 38.1175 150.78 38.6241 151.02C39.1308 151.26 39.4908 151.56 39.7041 151.92C39.9308 152.267 40.0441 152.713 40.0441 153.26C40.0441 154.127 39.6775 154.827 38.9441 155.36C38.2241 155.88 37.2575 156.14 36.0441 156.14ZM46.9749 154.56C47.2683 154.587 47.4749 154.667 47.5949 154.8C47.7283 154.92 47.7949 155.093 47.7949 155.32C47.7949 155.587 47.6883 155.793 47.4749 155.94C47.2749 156.073 46.9749 156.127 46.5749 156.1L46.0349 156.06C44.9549 155.98 44.1483 155.653 43.6149 155.08C43.0816 154.493 42.8149 153.633 42.8149 152.5V147.8H41.6149C41.0283 147.8 40.7349 147.54 40.7349 147.02C40.7349 146.78 40.8083 146.593 40.9549 146.46C41.1149 146.313 41.3349 146.24 41.6149 146.24H42.8149V144.18C42.8149 143.873 42.9016 143.633 43.0749 143.46C43.2616 143.287 43.5083 143.2 43.8149 143.2C44.1216 143.2 44.3683 143.287 44.5549 143.46C44.7416 143.633 44.8349 143.873 44.8349 144.18V146.24H46.8149C47.0949 146.24 47.3083 146.313 47.4549 146.46C47.6149 146.593 47.6949 146.78 47.6949 147.02C47.6949 147.273 47.6149 147.467 47.4549 147.6C47.3083 147.733 47.0949 147.8 46.8149 147.8H44.8349V152.64C44.8349 153.267 44.9616 153.727 45.2149 154.02C45.4816 154.313 45.8816 154.48 46.4149 154.52L46.9749 154.56ZM54.5057 146C56.839 146 58.0057 147.313 58.0057 149.94V155.14C58.0057 155.447 57.9124 155.687 57.7257 155.86C57.5524 156.02 57.3057 156.1 56.9857 156.1C56.679 156.1 56.4324 156.013 56.2457 155.84C56.0724 155.667 55.9857 155.433 55.9857 155.14V150.04C55.9857 149.213 55.819 148.607 55.4857 148.22C55.1657 147.833 54.659 147.64 53.9657 147.64C53.1524 147.64 52.499 147.893 52.0057 148.4C51.5124 148.907 51.2657 149.587 51.2657 150.44V155.14C51.2657 155.433 51.1724 155.667 50.9857 155.84C50.8124 156.013 50.5724 156.1 50.2657 156.1C49.959 156.1 49.7124 156.013 49.5257 155.84C49.339 155.667 49.2457 155.433 49.2457 155.14V147C49.2457 146.72 49.339 146.493 49.5257 146.32C49.7257 146.133 49.9724 146.04 50.2657 146.04C50.559 146.04 50.7924 146.127 50.9657 146.3C51.139 146.473 51.2257 146.7 51.2257 146.98V147.8C51.5457 147.213 51.9924 146.767 52.5657 146.46C53.139 146.153 53.7857 146 54.5057 146ZM68.4091 153.54C68.5958 153.54 68.7491 153.613 68.8691 153.76C68.9891 153.907 69.0491 154.093 69.0491 154.32C69.0491 154.707 68.8091 155.033 68.3291 155.3C67.8625 155.567 67.3491 155.773 66.7891 155.92C66.2425 156.067 65.7158 156.14 65.2091 156.14C63.6625 156.14 62.4425 155.693 61.5491 154.8C60.6558 153.893 60.2091 152.66 60.2091 151.1C60.2091 150.1 60.4025 149.213 60.7891 148.44C61.1891 147.667 61.7425 147.067 62.4491 146.64C63.1691 146.213 63.9825 146 64.8891 146C66.1958 146 67.2291 146.42 67.9891 147.26C68.7491 148.1 69.1291 149.233 69.1291 150.66C69.1291 151.193 68.8891 151.46 68.4091 151.46H62.2291C62.3625 153.527 63.3558 154.56 65.2091 154.56C65.7025 154.56 66.1291 154.493 66.4891 154.36C66.8491 154.227 67.2291 154.053 67.6291 153.84C67.6691 153.813 67.7758 153.76 67.9491 153.68C68.1358 153.587 68.2891 153.54 68.4091 153.54ZM64.9291 147.48C64.1558 147.48 63.5358 147.727 63.0691 148.22C62.6025 148.713 62.3225 149.407 62.2291 150.3H67.3891C67.3491 149.393 67.1158 148.7 66.6891 148.22C66.2758 147.727 65.6891 147.48 64.9291 147.48ZM76.0374 154.56C76.3308 154.587 76.5374 154.667 76.6574 154.8C76.7908 154.92 76.8574 155.093 76.8574 155.32C76.8574 155.587 76.7508 155.793 76.5374 155.94C76.3374 156.073 76.0374 156.127 75.6374 156.1L75.0974 156.06C74.0174 155.98 73.2108 155.653 72.6774 155.08C72.1441 154.493 71.8774 153.633 71.8774 152.5V147.8H70.6774C70.0908 147.8 69.7974 147.54 69.7974 147.02C69.7974 146.78 69.8708 146.593 70.0174 146.46C70.1774 146.313 70.3974 146.24 70.6774 146.24H71.8774V144.18C71.8774 143.873 71.9641 143.633 72.1374 143.46C72.3241 143.287 72.5708 143.2 72.8774 143.2C73.1841 143.2 73.4308 143.287 73.6174 143.46C73.8041 143.633 73.8974 143.873 73.8974 144.18V146.24H75.8774C76.1574 146.24 76.3708 146.313 76.5174 146.46C76.6774 146.593 76.7574 146.78 76.7574 147.02C76.7574 147.273 76.6774 147.467 76.5174 147.6C76.3708 147.733 76.1574 147.8 75.8774 147.8H73.8974V152.64C73.8974 153.267 74.0241 153.727 74.2774 154.02C74.5441 154.313 74.9441 154.48 75.4774 154.52L76.0374 154.56Z" fill="black"/>
<defs>
<linearGradient id="paint0_linear" x1="12.8528" y1="49.9154" x2="81.3368" y2="52.7819" gradientUnits="userSpaceOnUse">
<stop stop-color="#7543E3"/>
<stop offset="1" stop-color="#582ACB"/>
</linearGradient>
</defs>
</svg>
