<svg width="35" height="30" viewBox="0 0 35 30" fill="none" xmlns="http://www.w3.org/2000/svg">
<path d="M32.5592 0.40539L2.10454 12.1518C0.0259521 12.9858 0.03828 14.1451 1.72567 14.6621L9.32116 17.0328L12.2274 25.943C12.5807 26.9183 12.4065 27.3051 13.4306 27.3051C14.2209 27.3051 14.5715 26.9447 15.0117 26.5147C15.2916 26.2408 16.9535 24.625 18.8092 22.8208L26.7099 28.6582C28.1638 29.4603 29.2135 29.0448 29.5756 27.308L34.7618 2.8685C35.2928 0.739702 33.9502 -0.225909 32.5592 0.40539ZM10.5132 16.4881L27.6335 5.68684C28.4881 5.16852 29.2718 5.44719 28.6284 6.01832L13.9689 19.2449L13.3981 25.3328L10.5132 16.4881Z" fill="#1565C0"/>
</svg>
