<svg width="33" height="30" viewBox="0 0 33 30" fill="none" xmlns="http://www.w3.org/2000/svg">
<path fill-rule="evenodd" clip-rule="evenodd" d="M29.3894 7.70468C29.4017 8.02064 29.4057 8.33646 29.4057 8.65241C29.4057 18.2315 22.6673 29.2899 10.3451 29.2899C6.55998 29.2899 3.04033 28.0835 0.0748291 26.0298C0.599033 26.0873 1.13141 26.1305 1.67196 26.1305C4.81037 26.1305 7.70098 24.967 9.99387 23.0138C7.06241 22.9707 4.58709 20.8596 3.73338 17.9873C4.14321 18.0735 4.56527 18.1167 4.99689 18.1167C5.60551 18.1167 6.19643 18.0306 6.76284 17.8583C3.69522 17.1977 1.38467 14.268 1.38467 10.7495C1.38467 10.7064 1.38467 10.6919 1.38467 10.6632C2.28875 11.1946 3.32352 11.5247 4.42231 11.5678C2.62232 10.2609 1.4391 8.03497 1.4391 5.52172C1.4391 4.20047 1.7686 2.95098 2.34863 1.87387C5.65179 6.26846 10.5902 9.15514 16.1577 9.45673C16.0433 8.92536 15.9848 8.36541 15.9848 7.80531C15.9848 3.79848 18.9843 0.552734 22.685 0.552734C24.6117 0.552734 26.3517 1.42891 27.5731 2.83632C29.1021 2.52037 30.5345 1.91724 31.8307 1.08427C31.3283 2.77892 30.2676 4.2004 28.8815 5.09081C30.2376 4.91847 31.5312 4.53101 32.7307 3.95655C31.8307 5.40706 30.6979 6.68502 29.3894 7.70468Z" fill="#1565C0"/>
</svg>
